<?xml version="1.0" encoding="UTF-8"?>
<svg version="1.1" xmlns="http://www.w3.org/2000/svg" width="162" height="162">
<path d="M0 0 C1.16946167 -0.00744736 1.16946167 -0.00744736 2.36254883 -0.01504517 C4.93506771 -0.02961506 7.5075248 -0.03646247 10.08007812 -0.04199219 C10.96393692 -0.04481956 11.84779572 -0.04764694 12.75843811 -0.05056 C17.44182635 -0.06553695 22.12518394 -0.07477403 26.80859375 -0.07910156 C31.61527574 -0.0845637 36.42167123 -0.10854803 41.22826385 -0.13707352 C44.95008115 -0.15583053 48.67183148 -0.16091254 52.39369202 -0.16243744 C54.1636765 -0.16543844 55.93366054 -0.1733791 57.70359802 -0.18662262 C80.1046928 -0.34218485 80.1046928 -0.34218485 89.11132812 4.16113281 C89.11132812 4.82113281 89.11132812 5.48113281 89.11132812 6.16113281 C89.70945312 6.26425781 90.30757813 6.36738281 90.92382812 6.47363281 C93.42391098 7.25937314 94.48667895 8.13032134 96.11132812 10.16113281 C96.11132812 10.82113281 96.11132812 11.48113281 96.11132812 12.16113281 C96.77132812 12.16113281 97.43132812 12.16113281 98.11132812 12.16113281 C98.44132813 14.14113281 98.77132812 16.12113281 99.11132812 18.16113281 C99.77132812 18.16113281 100.43132812 18.16113281 101.11132812 18.16113281 C103.52295361 32.02797933 103.36010834 45.80544023 103.14453125 59.83459473 C103.1081035 62.38708158 103.07999968 64.93958673 103.05273438 67.4921875 C102.99960898 72.31251802 102.92829267 77.13232477 102.84585571 81.95223999 C102.81473366 83.86902325 102.78795493 85.7858824 102.76571655 87.70278931 C102.73216134 90.4224232 102.67981683 93.14111511 102.62304688 95.86035156 C102.61664185 96.66564301 102.61023682 97.47093445 102.6036377 98.30062866 C102.45684662 104.02136975 101.18146488 108.83620599 99.11132812 114.16113281 C98.45132813 114.16113281 97.79132813 114.16113281 97.11132812 114.16113281 C97.11132812 115.15113281 97.11132812 116.14113281 97.11132812 117.16113281 C96.45132813 117.16113281 95.79132813 117.16113281 95.11132812 117.16113281 C94.77101562 118.02738281 94.77101562 118.02738281 94.42382812 118.91113281 C91.4183822 124.06332582 86.93505197 125.81366398 81.51342773 127.55249023 C77.96937679 128.45047977 74.54420726 128.43366153 70.92382812 128.28613281 C60.71328466 128.06538143 50.54216073 128.45467977 40.34301758 128.89404297 C39.10511475 128.94222168 37.86721191 128.99040039 36.59179688 129.04003906 C35.48731201 129.08717041 34.38282715 129.13430176 33.24487305 129.18286133 C30.09075165 129.16099013 27.21347995 128.69217591 24.11132812 128.16113281 C22.53593265 128.42369873 20.96077238 128.68810312 19.38867188 128.96972656 C13.98737696 129.42369475 8.49590452 128.64656619 3.11132812 128.16113281 C3.11132812 127.50113281 3.11132812 126.84113281 3.11132812 126.16113281 C2.30695312 126.47050781 1.50257812 126.77988281 0.67382812 127.09863281 C-5.22370257 128.85754548 -10.32259093 130.27891607 -16.07617188 127.47363281 C-17.3623704 126.72872024 -18.63405613 125.95808998 -19.88867188 125.16113281 C-20.49324219 124.80148438 -21.0978125 124.44183594 -21.72070312 124.07128906 C-23.38867187 123.03613281 -23.38867187 123.03613281 -25.88867188 121.16113281 C-25.88867188 120.50113281 -25.88867188 119.84113281 -25.88867188 119.16113281 C-26.50285099 118.90474533 -27.11703011 118.64835785 -27.74982071 118.38420105 C-31.38179682 116.30731291 -32.558296 113.0120162 -33.88867188 109.16113281 C-34.38611177 106.17651491 -34.39812298 103.28693079 -34.34277344 100.26660156 C-34.34335754 99.41687271 -34.34394165 98.56714386 -34.34454346 97.69166565 C-34.34177837 94.91022489 -34.31076212 92.12988408 -34.27929688 89.34863281 C-34.27182886 87.40951116 -34.26613858 85.47038192 -34.262146 83.53125 C-34.24693383 78.44792543 -34.20769031 73.36506401 -34.16333008 68.28192139 C-34.1222818 63.08677433 -34.10411462 57.89155183 -34.08398438 52.69628906 C-34.0411916 42.51770108 -33.97299409 32.33945559 -33.88867188 22.16113281 C-33.22867188 22.16113281 -32.56867187 22.16113281 -31.88867188 22.16113281 C-32.21867187 21.17113281 -32.54867187 20.18113281 -32.88867188 19.16113281 C-31.95117188 16.97363281 -31.95117188 16.97363281 -30.88867188 15.16113281 C-30.22867187 15.16113281 -29.56867187 15.16113281 -28.88867188 15.16113281 C-28.80617188 14.41863281 -28.72367188 13.67613281 -28.63867188 12.91113281 C-27.71598047 9.527931 -26.51828028 8.45028084 -23.88867188 6.16113281 C-21.26757812 4.71191406 -21.26757812 4.71191406 -18.45117188 3.47363281 C-17.52433594 3.05726562 -16.5975 2.64089844 -15.64257812 2.21191406 C-10.44833228 0.22999614 -5.51325284 0.00846152 0 0 Z M-12.88867188 24.16113281 C-12.88867188 24.82113281 -12.88867188 25.48113281 -12.88867188 26.16113281 C-14.53867187 26.49113281 -16.18867187 26.82113281 -17.88867188 27.16113281 C-17.88867188 28.15113281 -17.88867188 29.14113281 -17.88867188 30.16113281 C-18.87867188 30.65613281 -18.87867188 30.65613281 -19.88867188 31.16113281 C-19.55867188 34.46113281 -19.22867187 37.76113281 -18.88867188 41.16113281 C-6.53949638 42.13928533 5.72835707 42.27853263 18.11132812 42.16113281 C18.31263181 50.12470643 18.31263181 50.12470643 15.11132812 54.16113281 C15.33330625 56.85959171 15.33330625 56.85959171 16.11132812 59.16113281 C15.12132812 59.49113281 14.13132813 59.82113281 13.11132812 60.16113281 C13.60632812 62.14113281 13.60632812 62.14113281 14.11132812 64.16113281 C13.45132813 64.16113281 12.79132812 64.16113281 12.11132812 64.16113281 C12.60632812 66.63613281 12.60632812 66.63613281 13.11132812 69.16113281 C12.45132813 69.16113281 11.79132812 69.16113281 11.11132812 69.16113281 C10.94697266 70.06605469 10.94697266 70.06605469 10.77929688 70.98925781 C9.86763424 75.58463043 8.95392968 78.41406713 6.11132812 82.16113281 C5.86046088 85.32845702 5.86046088 85.32845702 6.11132812 88.16113281 C5.12132812 88.65613281 5.12132812 88.65613281 4.11132812 89.16113281 C4.44132812 90.15113281 4.77132812 91.14113281 5.11132812 92.16113281 C4.45132813 92.16113281 3.79132812 92.16113281 3.11132812 92.16113281 C3.06234375 92.87140625 3.01335938 93.58167969 2.96289062 94.31347656 C2.888125 95.23257813 2.81335938 96.15167969 2.73632812 97.09863281 C2.66671875 98.01515625 2.59710938 98.93167969 2.52539062 99.87597656 C2.38875 100.63007812 2.25210938 101.38417969 2.11132812 102.16113281 C1.12132812 102.65613281 1.12132812 102.65613281 0.11132812 103.16113281 C0.44132812 104.81113281 0.77132812 106.46113281 1.11132812 108.16113281 C2.59632812 107.66613281 2.59632812 107.66613281 4.11132812 107.16113281 C4.23507813 106.52175781 4.35882813 105.88238281 4.48632812 105.22363281 C4.69257812 104.54300781 4.89882813 103.86238281 5.11132812 103.16113281 C7.67382812 101.91113281 7.67382812 101.91113281 10.11132812 101.16113281 C10.11132812 99.84113281 10.11132812 98.52113281 10.11132812 97.16113281 C13.08132812 96.17113281 13.08132812 96.17113281 16.11132812 95.16113281 C16.11132812 94.50113281 16.11132812 93.84113281 16.11132812 93.16113281 C18.11132812 92.16113281 20.11132813 91.16113281 22.11132812 90.16113281 C22.11132812 89.50113281 22.11132812 88.84113281 22.11132812 88.16113281 C22.70945313 87.91363281 23.30757812 87.66613281 23.92382812 87.41113281 C26.43815659 85.97437369 27.51623578 84.55377133 29.11132812 82.16113281 C29.77132812 81.17113281 30.43132812 80.18113281 31.11132812 79.16113281 C32.32800789 77.00512338 32.32800789 77.00512338 32.54882812 73.66113281 C33.11132812 70.16113281 33.11132812 70.16113281 35.11132812 68.16113281 C35.27632812 67.00613281 35.44132812 65.85113281 35.61132812 64.66113281 C36.11132812 61.16113281 36.11132812 61.16113281 38.11132812 59.16113281 C39.04445321 55.85278025 39.21906154 54.48433307 38.11132812 51.16113281 C39.10132813 51.16113281 40.09132812 51.16113281 41.11132812 51.16113281 C40.78132813 49.51113281 40.45132813 47.86113281 40.11132812 46.16113281 C40.77132812 46.16113281 41.43132812 46.16113281 42.11132812 46.16113281 C42.11132812 45.50113281 42.11132812 44.84113281 42.11132812 44.16113281 C45.65360972 42.98037228 48.52611682 43.01756188 52.26367188 42.98535156 C53.69402522 42.96215843 55.12436382 42.9380413 56.5546875 42.91308594 C58.80405633 42.87795107 61.05288012 42.84860867 63.30249023 42.83520508 C65.477716 42.81971711 67.65136393 42.77951687 69.82617188 42.73535156 C71.12675537 42.72076904 72.42733887 42.70618652 73.76733398 42.69116211 C77.59855872 42.08390586 78.83150883 41.24449202 81.11132812 38.16113281 C81.11132812 37.50113281 81.11132812 36.84113281 81.11132812 36.16113281 C81.77132812 36.16113281 82.43132812 36.16113281 83.11132812 36.16113281 C85.91054396 31.96230906 84.97690905 30.03986169 84.11132812 25.16113281 C82.21155724 23.26136193 79.42193747 24.04100639 76.8946228 24.03671265 C75.55350937 24.04210556 75.55350937 24.04210556 74.18530273 24.04760742 C73.24881393 24.0474614 72.31232513 24.04731537 71.34745789 24.04716492 C68.23617273 24.04786444 65.12494664 24.05565866 62.01367188 24.06347656 C59.8627577 24.0653406 57.7118431 24.06676457 55.56092834 24.06776428 C49.88751055 24.07159057 44.21411817 24.08142179 38.54071045 24.09246826 C32.75631047 24.10268001 26.97190639 24.10726139 21.1875 24.11230469 C9.82876485 24.12304396 -1.5299514 24.1401217 -12.88867188 24.16113281 Z M69.11132812 61.16113281 C67.13132812 62.15113281 67.13132812 62.15113281 65.11132812 63.16113281 C65.44132812 64.15113281 65.77132812 65.14113281 66.11132812 66.16113281 C68.42132813 65.50113281 70.73132813 64.84113281 73.11132812 64.16113281 C72.12132813 63.83113281 71.13132812 63.50113281 70.11132812 63.16113281 C69.78132813 62.50113281 69.45132813 61.84113281 69.11132812 61.16113281 Z " fill="#392514" transform="translate(48.888671875,16.8388671875)"/>
<path d="M0 0 C0.99 1.98 0.99 1.98 2 4 C0.89591797 4.34611328 0.89591797 4.34611328 -0.23046875 4.69921875 C-11.22974153 8.37532973 -15.58202099 14.29792595 -20.6953125 24.32421875 C-27.05134579 37.31511949 -34.50158694 53.37478069 -34 68 C-36.84476452 69.42238226 -39.37041536 69.23845037 -42.546875 69.3515625 C-43.52010712 69.38629166 -43.52010712 69.38629166 -44.51300049 69.42172241 C-45.88814505 69.46936531 -47.26337487 69.51459903 -48.63867188 69.55761719 C-50.72821984 69.62430489 -52.81713516 69.70226645 -54.90625 69.78125 C-56.24476872 69.82620938 -57.58331005 69.8705012 -58.921875 69.9140625 C-60.13456055 69.9548291 -61.34724609 69.9955957 -62.59667969 70.03759766 C-65.85035853 70.00165314 -68.8021297 69.55153323 -72 69 C-73.010625 69.165 -74.02125 69.33 -75.0625 69.5 C-80.76987243 70.22474571 -86.29288259 69.55783854 -92 69 C-91.67 68.360625 -91.34 67.72125 -91 67.0625 C-89.92728775 65.23205433 -89.92728775 65.23205433 -90 64 C-90.66 64 -91.32 64 -92 64 C-92.74019247 61.3353071 -93.19939377 59.59818132 -92.3125 56.9375 C-90.75591042 54.63967729 -89.08828778 52.8272518 -87 51 C-86.34 51 -85.68 51 -85 51 C-84.938125 50.21625 -84.87625 49.4325 -84.8125 48.625 C-84.544375 47.75875 -84.27625 46.8925 -84 46 C-81.4375 44.6875 -81.4375 44.6875 -79 44 C-79.33 42.68 -79.66 41.36 -80 40 C-77.69 39.34 -75.38 38.68 -73 38 C-75.31 37.01 -77.62 36.02 -80 35 C-78.71034824 33.62437146 -77.37310707 32.29233607 -76 31 C-75.34 31 -74.68 31 -74 31 C-74 30.34 -74 29.68 -74 29 C-73.236875 28.4225 -72.47375 27.845 -71.6875 27.25 C-68.70305031 24.75139096 -67.52819035 22.53896713 -66 19 C-65.01 19.66 -64.02 20.32 -63 21 C-63.33 22.65 -63.66 24.3 -64 26 C-61.88012394 26.21157981 -61.88012394 26.21157981 -60.25 24.5625 C-57.51629538 22.66409401 -55.27236528 22.37185969 -52 22 C-52 21.34 -52 20.68 -52 20 C-49.5 18.375 -49.5 18.375 -47 17 C-47.495 15.515 -47.495 15.515 -48 14 C-46.68 13.67 -45.36 13.34 -44 13 C-44 12.34 -44 11.68 -44 11 C-43.21625 10.7525 -42.4325 10.505 -41.625 10.25 C-38.64259316 8.82980627 -38.1589951 7.99407067 -37 5 C-36 4 -36 4 -33.5625 3.8125 C-31 4 -31 4 -29 6 C-28.4225 5.360625 -27.845 4.72125 -27.25 4.0625 C-23.40083411 0.53409793 -19.64837622 0.86324075 -14.5625 0.875 C-13.45003906 0.87242188 -12.33757812 0.86984375 -11.19140625 0.8671875 C-8 1 -8 1 -5.27734375 1.6328125 C-2.7266262 2.30891442 -2.7266262 2.30891442 0 0 Z " fill="#362212" transform="translate(145,76)"/>
<path d="M0 0 C1.30331881 3.90995644 1.18227964 7.6494182 1.203125 11.7265625 C1.20882507 12.58881439 1.21452515 13.45106628 1.22039795 14.33944702 C1.22984566 16.166878 1.23638102 17.994326 1.24023438 19.82177734 C1.24989108 22.5937354 1.28089585 25.36493623 1.3125 28.13671875 C1.31903543 29.91666229 1.32428378 31.69661111 1.328125 33.4765625 C1.3404718 34.29565094 1.3528186 35.11473938 1.36553955 35.95864868 C1.34342257 41.78409731 0.13476407 46.58972815 -2 52 C-2.66 52 -3.32 52 -4 52 C-4 52.99 -4 53.98 -4 55 C-4.66 55 -5.32 55 -6 55 C-6.226875 55.5775 -6.45375 56.155 -6.6875 56.75 C-9.49561871 61.56391778 -13.88036122 63.84559936 -19.04296875 65.47265625 C-25.60386072 66.64269643 -32.36322993 66.20573225 -39 66 C-40.37216819 60.59655507 -39.49296639 56.80858197 -37.9375 51.625 C-37.70780518 50.83697998 -37.47811035 50.04895996 -37.24145508 49.23706055 C-33.9996107 38.35567305 -30.19904695 27.88978428 -24.9375 17.8125 C-24.62127686 17.20059814 -24.30505371 16.58869629 -23.97924805 15.95825195 C-19.9941885 8.626928 -14.23580312 3.43586546 -6.3125 0.75 C-3 0 -3 0 0 0 Z " fill="#A26739" transform="translate(150,79)"/>
<path d="M0 0 C-0.1875 1.8125 -0.1875 1.8125 -1 4 C-3.42544933 5.68433981 -5.9109994 6.95658507 -8.5625 8.25 C-11.05412075 10.03885592 -11.61343738 10.9198461 -12.9375 13.5625 C-14.46951854 16.52729701 -14.70286607 16.88238449 -18 18.1875 C-18.99 18.455625 -19.98 18.72375 -21 19 C-21.680625 19.680625 -22.36125 20.36125 -23.0625 21.0625 C-25.34827803 23.34827803 -26.840799 23.64897767 -30 24 C-30 21 -30 21 -29 20 C-30.98 19.34 -32.96 18.68 -35 18 C-33.71034824 16.62437146 -32.37310707 15.29233607 -31 14 C-30.34 14 -29.68 14 -29 14 C-29 13.34 -29 12.68 -29 12 C-28.236875 11.4225 -27.47375 10.845 -26.6875 10.25 C-23.70305031 7.75139096 -22.52819035 5.53896713 -21 2 C-20.01 2.66 -19.02 3.32 -18 4 C-18.33 5.65 -18.66 7.3 -19 9 C-16.88012394 9.21157981 -16.88012394 9.21157981 -15.25 7.5625 C-12.51629538 5.66409401 -10.27236528 5.37185969 -7 5 C-7 4.34 -7 3.68 -7 3 C-2.61538462 0 -2.61538462 0 0 0 Z " fill="#311E0E" transform="translate(100,93)"/>
<path d="M0 0 C0.78007919 -0.00511093 1.56015839 -0.01022186 2.36387634 -0.01548767 C4.92015451 -0.02928585 7.47615992 -0.02843366 10.0324707 -0.02612305 C11.82835488 -0.03001665 13.62423814 -0.03435268 15.42012024 -0.03910828 C19.17822253 -0.04655051 22.93623086 -0.0462947 26.69433594 -0.04101562 C31.47741656 -0.03523786 36.26010782 -0.05212072 41.0431242 -0.0753603 C44.75208229 -0.09019702 48.46094889 -0.09095568 52.16993141 -0.08785057 C53.93153463 -0.08835927 55.69314359 -0.0935109 57.45471764 -0.10366249 C79.78835385 -0.21654085 79.78835385 -0.21654085 88.77075195 4.2746582 C88.44075195 4.9346582 88.11075195 5.5946582 87.77075195 6.2746582 C87.02825195 6.0890332 86.28575195 5.9034082 85.52075195 5.7121582 C82.82084233 5.28262713 81.32444118 5.42342846 78.77075195 6.2746582 C78.77075195 5.6146582 78.77075195 4.9546582 78.77075195 4.2746582 C77.78075195 4.2746582 76.79075195 4.2746582 75.77075195 4.2746582 C75.77075195 3.6146582 75.77075195 2.9546582 75.77075195 2.2746582 C65.28654749 2.22812599 54.80236797 2.19268352 44.3180809 2.17103386 C39.4487516 2.16063823 34.57949345 2.14655695 29.71020508 2.1237793 C25.00286417 2.10189935 20.2955913 2.09005791 15.58820343 2.08490372 C13.80065085 2.08123497 12.01310159 2.07407159 10.22557831 2.06319809 C0.53743679 2.00665906 -8.71103099 2.17610564 -18.22924805 4.2746582 C-13.67115798 -0.28343186 -6.10320864 -0.02107124 0 0 Z " fill="#151104" transform="translate(49.229248046875,16.725341796875)"/>
<path d="M0 0 C24.09 0 48.18 0 73 0 C73 0.33 73 0.66 73 1 C60.37845555 1.64061835 47.75304335 2.1484894 35.12176514 2.55056763 C33.58284398 2.60017023 32.04398256 2.65166219 30.50518799 2.70504761 C28.32260297 2.7801418 26.13990736 2.84804666 23.95703125 2.9140625 C22.68835205 2.9548291 21.41967285 2.9955957 20.11254883 3.03759766 C17 3 17 3 14 2 C11.60745424 1.77439324 9.21071877 1.59151405 6.8125 1.4375 C5.54019531 1.35371094 4.26789062 1.26992188 2.95703125 1.18359375 C1.98121094 1.12300781 1.00539062 1.06242187 0 1 C0 0.67 0 0.34 0 0 Z " fill="#483B19" transform="translate(47,18)"/>
<path d="M0 0 C2.5625 0.1875 2.5625 0.1875 4.5625 2.1875 C7.66176819 1.86551034 7.66176819 1.86551034 10.5625 1.1875 C9.5725 1.6825 9.5725 1.6825 8.5625 2.1875 C7.47083725 4.12080603 7.47083725 4.12080603 6.5625 6.1875 C5.14469707 9.02310586 3.51464542 9.18108679 0.5625 10.1875 C-1.09669896 10.55621088 -2.7622643 10.90031674 -4.4375 11.1875 C-4.4375 11.8475 -4.4375 12.5075 -4.4375 13.1875 C-5.7575 12.8575 -7.0775 12.5275 -8.4375 12.1875 C-7.4475 12.1875 -6.4575 12.1875 -5.4375 12.1875 C-5.1075 11.1975 -4.7775 10.2075 -4.4375 9.1875 C-2.375 8 -2.375 8 -0.4375 7.1875 C-1.7575 6.5275 -3.0775 5.8675 -4.4375 5.1875 C-3.32386364 0.25568182 -3.32386364 0.25568182 0 0 Z " fill="#2A1A0B" transform="translate(111.4375,79.8125)"/>
<path d="M0 0 C0.80824219 0.11085938 1.61648437 0.22171875 2.44921875 0.3359375 C3.37154297 0.47902344 3.37154297 0.47902344 4.3125 0.625 C3.755625 1.016875 3.19875 1.40875 2.625 1.8125 C0.17336563 3.65174717 0.17336563 3.65174717 -2.25 6.25 C-4.6875 8.625 -4.6875 8.625 -7.6875 9.625 C-8.3475 8.635 -9.0075 7.645 -9.6875 6.625 C-10.3475 5.965 -11.0075 5.305 -11.6875 4.625 C-10.3675 4.295 -9.0475 3.965 -7.6875 3.625 C-7.6875 2.965 -7.6875 2.305 -7.6875 1.625 C-4.33422361 -0.61051759 -3.78006343 -0.54783528 0 0 Z " fill="#332111" transform="translate(108.6875,85.375)"/>
<path d="M0 0 C0.66 0.66 1.32 1.32 2 2 C0.59711956 5.39029439 -0.92886298 7.01279369 -4 9 C-4.70125 9.28875 -5.4025 9.5775 -6.125 9.875 C-8.70890737 11.42534442 -9.11469215 13.19652514 -10 16 C-11.32 15.67 -12.64 15.34 -14 15 C-13.319375 14.38125 -13.319375 14.38125 -12.625 13.75 C-10.94049626 11.93591905 -10.00734029 10.24714373 -9 8 C-8.01 8 -7.02 8 -6 8 C-5.62875 6.7934375 -5.62875 6.7934375 -5.25 5.5625 C-4 3 -4 3 -1.875 2.1875 C-1.25625 2.125625 -0.6375 2.06375 0 2 C0 1.34 0 0.68 0 0 Z " fill="#1E1607" transform="translate(63,111)"/>
<path d="M0 0 C1.1240625 -0.01417969 2.248125 -0.02835937 3.40625 -0.04296875 C6.5 0.1875 6.5 0.1875 10.5 2.1875 C4.56 2.6825 4.56 2.6825 -1.5 3.1875 C-1.5 2.5275 -1.5 1.8675 -1.5 1.1875 C-2.49 1.6825 -2.49 1.6825 -3.5 2.1875 C-3.5 2.8475 -3.5 3.5075 -3.5 4.1875 C-6.14 3.8575 -8.78 3.5275 -11.5 3.1875 C-10.5 1.1875 -10.5 1.1875 -8.84375 0.57421875 C-5.87278964 0.08401029 -3.01111046 0.01726554 0 0 Z " fill="#090301" transform="translate(130.5,76.8125)"/>
<path d="M0 0 C1.32 0 2.64 0 4 0 C3.67 1.65 3.34 3.3 3 5 C2.01 5.33 1.02 5.66 0 6 C-1.20882096 8.00016466 -1.20882096 8.00016466 -2 10 C-2.99 9.67 -3.98 9.34 -5 9 C-5 7.35 -5 5.7 -5 4 C-3.35 3.34 -1.7 2.68 0 2 C0 1.34 0 0.68 0 0 Z " fill="#261505" transform="translate(66,118)"/>
<path d="M0 0 C1.12556187 3.3766856 0.6876151 5.56192451 0 9 C0.36856864 11.23167185 0.36856864 11.23167185 1 13 C-0.32 13.33 -1.64 13.66 -3 14 C-4.1875 11.375 -4.1875 11.375 -5 8 C-3.71966965 4.67114109 -2.51779914 2.51779914 0 0 Z " fill="#2B2110" transform="translate(50,115)"/>
<path d="M0 0 C0 0.66 0 1.32 0 2 C-1.2065625 1.98839844 -2.413125 1.97679688 -3.65625 1.96484375 C-5.27083177 1.95545665 -6.88541524 1.94635744 -8.5 1.9375 C-9.29148438 1.92912109 -10.08296875 1.92074219 -10.8984375 1.91210938 C-16.02761717 1.89108815 -20.92336106 2.26062713 -26 3 C-25.67 2.01 -25.34 1.02 -25 0 C-17.46918589 -2.82405529 -7.75702474 -0.73501419 0 0 Z " fill="#29170A" transform="translate(141,76)"/>
<path d="M0 0 C0.66 0 1.32 0 2 0 C2.35483266 3.8144511 2.3204633 5.52998716 0.125 8.75 C-1.23055023 10.18528848 -2.6040112 11.6040112 -4 13 C-5 10 -5 10 -4.00390625 7.51953125 C-3.52824219 6.62621094 -3.05257812 5.73289062 -2.5625 4.8125 C-2.08941406 3.91144531 -1.61632812 3.01039062 -1.12890625 2.08203125 C-0.75636719 1.39496094 -0.38382812 0.70789063 0 0 Z " fill="#956540" transform="translate(125,97)"/>
<path d="M0 0 C-0.33 1.65 -0.66 3.3 -1 5 C-2.32 5 -3.64 5 -5 5 C-5 7.31 -5 9.62 -5 12 C-6.32 12 -7.64 12 -9 12 C-8.67 10.35 -8.34 8.7 -8 7 C-7.34 7 -6.68 7 -6 7 C-6 6.01 -6 5.02 -6 4 C-2.57142857 0 -2.57142857 0 0 0 Z " fill="#1E1204" transform="translate(90,121)"/>
<path d="M0 0 C0.99 0.66 1.98 1.32 3 2 C2.6875 4.375 2.6875 4.375 2 7 C-1 9 -1 9 -3.1875 8.625 C-3.785625 8.41875 -4.38375 8.2125 -5 8 C-4.54625 7.4225 -4.0925 6.845 -3.625 6.25 C-2.15886484 4.2199667 -1.05142216 2.26460157 0 0 Z " fill="#1A0F06" transform="translate(79,95)"/>
<path d="M0 0 C0.66 0 1.32 0 2 0 C2.66 0.66 3.32 1.32 4 2 C7.09926819 1.67801034 7.09926819 1.67801034 10 1 C9.01 1.495 9.01 1.495 8 2 C7.67 2.99 7.34 3.98 7 5 C4.03 5 1.06 5 -2 5 C-1.34 3.35 -0.68 1.7 0 0 Z M4 6 C4.33 6.66 4.66 7.32 5 8 C4.34 7.67 3.68 7.34 3 7 C3.33 6.67 3.66 6.34 4 6 Z " fill="#110A05" transform="translate(112,80)"/>
<path d="M0 0 C1.32 0.66 2.64 1.32 4 2 C3.195625 2.391875 2.39125 2.78375 1.5625 3.1875 C-1.23064738 4.76948191 -1.23064738 4.76948191 -1.8125 7.6875 C-1.874375 8.450625 -1.93625 9.21375 -2 10 C-3.66666667 8.33333333 -5.33333333 6.66666667 -7 5 C-5.68 4.67 -4.36 4.34 -3 4 C-3 3.34 -3 2.68 -3 2 C-2.01 1.34 -1.02 0.68 0 0 Z " fill="#251308" transform="translate(104,85)"/>
<path d="M0 0 C4.92127034 -0.16682272 8.50343896 -0.24828052 13 2 C12.67 2.66 12.34 3.32 12 4 C11.2575 3.814375 10.515 3.62875 9.75 3.4375 C7.05009037 3.00796892 5.55368923 3.14877026 3 4 C3 3.34 3 2.68 3 2 C2.01 2 1.02 2 0 2 C0 1.34 0 0.68 0 0 Z " fill="#26180F" transform="translate(125,19)"/>
<path d="M0 0 C0.33 0.66 0.66 1.32 1 2 C1.66 2.33 2.32 2.66 3 3 C0.16569547 6.2542015 -1.68607774 7.5206753 -6 8 C-6 5 -6 5 -4.6875 3.61328125 C-3.125 2.40885417 -1.5625 1.20442708 0 0 Z " fill="#220E06" transform="translate(76,109)"/>
<path d="M0 0 C0.66 0 1.32 0 2 0 C2.8723412 2.99480917 3.10829766 5.63575911 3.0625 8.75 C3.05347656 9.54921875 3.04445312 10.3484375 3.03515625 11.171875 C3.01775391 12.07679687 3.01775391 12.07679687 3 13 C2.01 12.67 1.02 12.34 0 12 C0.2784375 10.9790625 0.2784375 10.9790625 0.5625 9.9375 C1.08523943 6.42767809 0.61378577 3.47811937 0 0 Z " fill="#26190B" transform="translate(148,35)"/>
<path d="M0 0 C0.66 0.99 1.32 1.98 2 3 C0.25 6 0.25 6 -2 9 C-3.32 9 -4.64 9 -6 9 C-6 8.34 -6 7.68 -6 7 C-5.34 7 -4.68 7 -4 7 C-3.67 6.01 -3.34 5.02 -3 4 C-2.03126968 2.64377755 -1.03565785 1.30582947 0 0 Z " fill="#2C1904" transform="translate(99,107)"/>
<path d="M0 0 C-3.87564767 3.61139896 -3.87564767 3.61139896 -6 5 C-8.375 4.8125 -8.375 4.8125 -10 4 C-7.19291889 -0.21062166 -4.92322234 -1.75829369 0 0 Z " fill="#281A0F" transform="translate(33,22)"/>
<path d="M0 0 C0.66 0.66 1.32 1.32 2 2 C0.68 5.3 -0.64 8.6 -2 12 C-2.66 11.01 -3.32 10.02 -4 9 C-3.3203125 6.73828125 -3.3203125 6.73828125 -2.125 4.3125 C-1.73570313 3.50425781 -1.34640625 2.69601563 -0.9453125 1.86328125 C-0.63335937 1.24839844 -0.32140625 0.63351563 0 0 Z " fill="#43250C" transform="translate(119,105)"/>
<path d="M0 0 C0.33 0.66 0.66 1.32 1 2 C0.34 2 -0.32 2 -1 2 C-1.0825 2.61875 -1.165 3.2375 -1.25 3.875 C-2 6 -2 6 -4.0625 7.25 C-5.0215625 7.62125 -5.0215625 7.62125 -6 8 C-6.66 7.34 -7.32 6.68 -8 6 C-4.25 3 -4.25 3 -2 3 C-2 2.34 -2 1.68 -2 1 C-1.34 0.67 -0.68 0.34 0 0 Z " fill="#1C120A" transform="translate(73,104)"/>
<path d="M0 0 C0.33 0 0.66 0 1 0 C1.36923077 6.4 1.36923077 6.4 -0.5 9.4375 C-0.995 9.953125 -1.49 10.46875 -2 11 C-2.66 10.67 -3.32 10.34 -4 10 C-2.66666667 6.66666667 -1.33333333 3.33333333 0 0 Z " fill="#170C08" transform="translate(84,81)"/>
<path d="M0 0 C1.18414294 3.55242882 0.69535532 4.69830562 -0.4375 8.1875 C-0.72496094 9.08855469 -1.01242188 9.98960937 -1.30859375 10.91796875 C-1.53675781 11.60503906 -1.76492187 12.29210937 -2 13 C-2.33 13 -2.66 13 -3 13 C-3.17791204 8.46324303 -3.0461125 5.092225 -1 1 C-0.67 0.67 -0.34 0.34 0 0 Z " fill="#42230A" transform="translate(112,128)"/>
<path d="M0 0 C1.32 0.33 2.64 0.66 4 1 C3.01 1.66 2.02 2.32 1 3 C-0.20450304 5.55183404 -0.20450304 5.55183404 -1 8 C-2.32 7.67 -3.64 7.34 -5 7 C-4.54625 6.5875 -4.0925 6.175 -3.625 5.75 C-1.94049626 3.93591905 -1.00734029 2.24714373 0 0 Z " fill="#210B03" transform="translate(54,119)"/>
<path d="M0 0 C2.0625 0.4375 2.0625 0.4375 4 1 C3.01 1.495 3.01 1.495 2 2 C1.34786708 4.02463255 1.34786708 4.02463255 1 6 C0.01 5.67 -0.98 5.34 -2 5 C-1.125 1.125 -1.125 1.125 0 0 Z " fill="#300D06" transform="translate(109,80)"/>
<path d="M0 0 C1.98 0.495 1.98 0.495 4 1 C2.75023244 4.65316671 2.32901247 5.78065836 -1 8 C-0.67 5.36 -0.34 2.72 0 0 Z " fill="#231108" transform="translate(87,68)"/>
<path d="M0 0 C0 0.66 0 1.32 0 2 C-0.99 2.495 -0.99 2.495 -2 3 C-2.65213292 5.02463255 -2.65213292 5.02463255 -3 7 C-3.99 7 -4.98 7 -6 7 C-5.625 4.0625 -5.625 4.0625 -5 1 C-3 0 -3 0 0 0 Z " fill="#201007" transform="translate(61,127)"/>
<path d="M0 0 C-2.83430453 3.2542015 -4.68607774 4.5206753 -9 5 C-8 2 -8 2 -5.625 0.25 C-3 -1 -3 -1 0 0 Z " fill="#3B0601" transform="translate(88,104)"/>
<path d="M0 0 C0.33 1.32 0.66 2.64 1 4 C-2.63 3.67 -6.26 3.34 -10 3 C-10 2.67 -10 2.34 -10 2 C-3.375 0 -3.375 0 0 0 Z " fill="#7E5434" transform="translate(150,79)"/>
<path d="" fill="#BABABA" transform="translate(0,0)"/>
<path d="" fill="#BABABA" transform="translate(0,0)"/>
<path d="" fill="#BABABA" transform="translate(0,0)"/>
<path d="" fill="#BABABA" transform="translate(0,0)"/>
<path d="" fill="#BABABA" transform="translate(0,0)"/>
</svg>
