<?xml version="1.0" encoding="UTF-8"?>
<svg version="1.1" xmlns="http://www.w3.org/2000/svg" width="777" height="321">
<path d="M0 0 C0.79929428 -0.0065712 1.59858856 -0.0131424 2.42210388 -0.01991272 C5.05410884 -0.03953924 7.68605692 -0.05128664 10.31811523 -0.0612793 C11.22312208 -0.06535482 12.12812893 -0.06943035 13.06056023 -0.07362938 C17.8541732 -0.09444832 22.64775793 -0.10876608 27.44140625 -0.11816406 C32.36136099 -0.12919876 37.28085979 -0.16357669 42.20065403 -0.20333576 C46.01082629 -0.22964087 49.82089233 -0.23786831 53.63114738 -0.24144554 C55.44301355 -0.2462784 57.25487605 -0.25779657 59.0666523 -0.27648354 C84.26928403 -0.52020187 84.26928403 -0.52020187 92.81420898 7.17700195 C92.81420898 7.83700195 92.81420898 8.49700195 92.81420898 9.17700195 C94.29920898 9.67200195 94.29920898 9.67200195 95.81420898 10.17700195 C95.81420898 10.83700195 95.81420898 11.49700195 95.81420898 12.17700195 C96.80420898 12.67200195 96.80420898 12.67200195 97.81420898 13.17700195 C106.32946715 25.16700022 103.57262423 47.22216149 102.81420898 61.17700195 C102.48420898 62.16700195 102.15420898 63.15700195 101.81420898 64.17700195 C101.76450956 67.09454239 101.77090233 69.98765306 101.82202148 72.90356445 C101.83955257 74.675694 101.85645941 76.44782981 101.87280273 78.2199707 C101.90362768 81.00449104 101.93898622 83.78869479 101.9855957 86.57299805 C102.02830493 89.26655837 102.05148716 91.95975537 102.07202148 94.65356445 C102.09995285 95.88219711 102.09995285 95.88219711 102.12844849 97.13565063 C102.15396576 102.97493972 100.96103889 107.75693216 98.81420898 113.17700195 C98.15420898 113.17700195 97.49420898 113.17700195 96.81420898 113.17700195 C96.81420898 114.16700195 96.81420898 115.15700195 96.81420898 116.17700195 C96.15420898 116.17700195 95.49420898 116.17700195 94.81420898 116.17700195 C94.47389648 117.04325195 94.47389648 117.04325195 94.12670898 117.92700195 C91.12126306 123.07919496 86.63793283 124.82953313 81.21630859 126.56835938 C77.67225765 127.46634891 74.24708812 127.44953067 70.62670898 127.30200195 C60.41616551 127.08125057 50.24504159 127.47054891 40.04589844 127.90991211 C38.80799561 127.95809082 37.57009277 128.00626953 36.29467773 128.0559082 C34.63795044 128.12660522 34.63795044 128.12660522 32.94775391 128.19873047 C29.79363251 128.17685927 26.91636081 127.70804505 23.81420898 127.17700195 C22.23881351 127.43956787 20.66365324 127.70397226 19.09155273 127.9855957 C13.69025782 128.43956389 8.19878538 127.66243533 2.81420898 127.17700195 C2.81420898 126.51700195 2.81420898 125.85700195 2.81420898 125.17700195 C2.00983398 125.48637695 1.20545898 125.79575195 0.37670898 126.11450195 C-5.52082171 127.87341462 -10.61971007 129.29478521 -16.37329102 126.48950195 C-17.65948954 125.74458938 -18.93117527 124.97395912 -20.18579102 124.17700195 C-20.79036133 123.81735352 -21.39493164 123.45770508 -22.01782227 123.0871582 C-23.68579102 122.05200195 -23.68579102 122.05200195 -26.18579102 120.17700195 C-26.18579102 119.51700195 -26.18579102 118.85700195 -26.18579102 118.17700195 C-26.78391602 117.97075195 -27.38204102 117.76450195 -27.99829102 117.55200195 C-31.01114069 115.65821073 -31.78173527 113.38627222 -33.18579102 110.17700195 C-33.51579102 109.51700195 -33.84579102 108.85700195 -34.18579102 108.17700195 C-34.28936251 105.48784244 -34.33259932 102.82438937 -34.33105469 100.13476562 C-34.3344133 99.30369797 -34.33777191 98.47263031 -34.3412323 97.61637878 C-34.35075855 94.85922769 -34.35268639 92.10213725 -34.35375977 89.3449707 C-34.35697169 87.4316658 -34.36033572 85.51836114 -34.36384583 83.60505676 C-34.36984164 79.58923778 -34.37168531 75.57344033 -34.37109375 71.55761719 C-34.37099222 66.4127069 -34.38463311 61.2679349 -34.40186596 56.12305737 C-34.4129884 52.16908637 -34.41501286 48.21514875 -34.41448402 44.26116371 C-34.41566421 42.36456133 -34.42008812 40.46795808 -34.42781639 38.57137108 C-34.4376191 35.91662318 -34.43473687 33.26217464 -34.42871094 30.60742188 C-34.43433044 29.82437683 -34.43994995 29.04133179 -34.44573975 28.23455811 C-34.42179438 24.0808567 -33.9998779 20.91943331 -32.18579102 17.17700195 C-31.85579102 16.18700195 -31.52579102 15.19700195 -31.18579102 14.17700195 C-30.52579102 14.17700195 -29.86579102 14.17700195 -29.18579102 14.17700195 C-29.08524414 13.58016602 -28.98469727 12.98333008 -28.88110352 12.3684082 C-27.64739251 8.48013924 -24.42409541 6.46892315 -21.18579102 4.17700195 C-14.20123025 0.62345349 -7.73168934 0.02796328 0 0 Z M-13.18579102 23.17700195 C-13.18579102 23.83700195 -13.18579102 24.49700195 -13.18579102 25.17700195 C-14.83579102 25.50700195 -16.48579102 25.83700195 -18.18579102 26.17700195 C-18.18579102 27.16700195 -18.18579102 28.15700195 -18.18579102 29.17700195 C-19.17579102 29.67200195 -19.17579102 29.67200195 -20.18579102 30.17700195 C-19.85579102 33.80700195 -19.52579102 37.43700195 -19.18579102 41.17700195 C-6.83720563 41.89212169 5.44472252 42.32120581 17.81420898 42.17700195 C17.96042899 47.21866767 17.84346959 49.22579247 14.81420898 53.17700195 C15.03618711 55.87546085 15.03618711 55.87546085 15.81420898 58.17700195 C14.82420898 58.50700195 13.83420898 58.83700195 12.81420898 59.17700195 C13.30920898 61.15700195 13.30920898 61.15700195 13.81420898 63.17700195 C13.15420898 63.17700195 12.49420898 63.17700195 11.81420898 63.17700195 C12.30920898 65.65200195 12.30920898 65.65200195 12.81420898 68.17700195 C11.32920898 68.67200195 11.32920898 68.67200195 9.81420898 69.17700195 C9.48420898 71.81700195 9.15420898 74.45700195 8.81420898 77.17700195 C8.15420898 77.17700195 7.49420898 77.17700195 6.81420898 77.17700195 C6.66983398 77.77512695 6.52545898 78.37325195 6.37670898 78.98950195 C5.92696509 80.738506 5.38528557 82.46377218 4.81420898 84.17700195 C5.14420898 85.16700195 5.47420898 86.15700195 5.81420898 87.17700195 C5.15420898 87.17700195 4.49420898 87.17700195 3.81420898 87.17700195 C4.14420898 88.49700195 4.47420898 89.81700195 4.81420898 91.17700195 C4.15420898 91.17700195 3.49420898 91.17700195 2.81420898 91.17700195 C1.70879973 93.96618344 1.70879973 93.96618344 1.81420898 96.17700195 C1.48420898 96.83700195 1.15420898 97.49700195 0.81420898 98.17700195 C1.14420898 99.16700195 1.47420898 100.15700195 1.81420898 101.17700195 C0.32920898 101.67200195 0.32920898 101.67200195 -1.18579102 102.17700195 C-0.52579102 102.50700195 0.13420898 102.83700195 0.81420898 103.17700195 C0.48420898 104.16700195 0.15420898 105.15700195 -0.18579102 106.17700195 C0.47420898 106.83700195 1.13420898 107.49700195 1.81420898 108.17700195 C2.80420898 107.68200195 2.80420898 107.68200195 3.81420898 107.17700195 C3.89670898 106.55825195 3.97920898 105.93950195 4.06420898 105.30200195 C4.81420898 103.17700195 4.81420898 103.17700195 7.87670898 101.42700195 C8.84608398 101.01450195 9.81545898 100.60200195 10.81420898 100.17700195 C10.48420898 99.18700195 10.15420898 98.19700195 9.81420898 97.17700195 C11.79420898 96.68200195 11.79420898 96.68200195 13.81420898 96.17700195 C13.81420898 95.51700195 13.81420898 94.85700195 13.81420898 94.17700195 C14.72170898 93.95012695 15.62920898 93.72325195 16.56420898 93.48950195 C20.29050766 91.98465057 21.50864515 90.38832301 23.81420898 87.17700195 C24.47420898 86.84700195 25.13420898 86.51700195 25.81420898 86.17700195 C25.81420898 85.51700195 25.81420898 84.85700195 25.81420898 84.17700195 C26.47420898 84.17700195 27.13420898 84.17700195 27.81420898 84.17700195 C27.81420898 83.51700195 27.81420898 82.85700195 27.81420898 82.17700195 C28.47420898 81.84700195 29.13420898 81.51700195 29.81420898 81.17700195 C30.93206011 79.05915082 30.93206011 79.05915082 31.81420898 76.17700195 C31.48420898 75.18700195 31.15420898 74.19700195 30.81420898 73.17700195 C31.80420898 72.84700195 32.79420898 72.51700195 33.81420898 72.17700195 C33.81420898 71.18700195 33.81420898 70.19700195 33.81420898 69.17700195 C34.30920898 68.18700195 34.30920898 68.18700195 34.81420898 67.17700195 C34.48420898 66.18700195 34.15420898 65.19700195 33.81420898 64.17700195 C34.80420898 63.84700195 35.79420898 63.51700195 36.81420898 63.17700195 C36.81420898 62.18700195 36.81420898 61.19700195 36.81420898 60.17700195 C37.30920898 59.18700195 37.30920898 59.18700195 37.81420898 58.17700195 C37.48420898 57.18700195 37.15420898 56.19700195 36.81420898 55.17700195 C37.47420898 55.17700195 38.13420898 55.17700195 38.81420898 55.17700195 C38.95858398 54.57887695 39.10295898 53.98075195 39.25170898 53.36450195 C39.70145288 51.61549791 40.24313239 49.89023172 40.81420898 48.17700195 C40.31920898 47.18700195 40.31920898 47.18700195 39.81420898 46.17700195 C40.47420898 46.17700195 41.13420898 46.17700195 41.81420898 46.17700195 C42.2022168 45.69110596 42.59022461 45.20520996 42.98999023 44.70458984 C45.81560828 42.33843726 48.37482647 42.77296548 52.00170898 42.7355957 C52.70062256 42.72238785 53.39953613 42.70917999 54.11962891 42.6955719 C56.3511962 42.654697 58.58235217 42.63301261 60.81420898 42.61450195 C63.04594014 42.59070387 65.27728436 42.56256641 67.50878906 42.52272034 C69.53361391 42.48722755 71.55869456 42.46735818 73.58374023 42.44824219 C76.96346538 42.42643114 76.96346538 42.42643114 79.81420898 40.17700195 C79.81420898 39.51700195 79.81420898 38.85700195 79.81420898 38.17700195 C80.47420898 37.84700195 81.13420898 37.51700195 81.81420898 37.17700195 C83.67852155 35.6975286 83.67852155 35.6975286 84.81420898 33.17700195 C84.81957074 30.11543816 84.46925635 27.16717187 83.81420898 24.17700195 C81.9144381 22.27723107 79.12481833 23.05687553 76.59750366 23.05258179 C75.25639023 23.0579747 75.25639023 23.0579747 73.88818359 23.06347656 C72.95169479 23.06333054 72.01520599 23.06318451 71.05033875 23.06303406 C67.93905359 23.06373358 64.82782749 23.0715278 61.71655273 23.0793457 C59.56563856 23.08120974 57.41472396 23.08263371 55.2638092 23.08363342 C49.59039141 23.08745971 43.91699903 23.09729093 38.24359131 23.1083374 C32.45919132 23.11854915 26.67478725 23.12313053 20.89038086 23.12817383 C9.5316457 23.1389131 -1.82707055 23.15599084 -13.18579102 23.17700195 Z M73.81420898 59.17700195 C73.81420898 59.50700195 73.81420898 59.83700195 73.81420898 60.17700195 C75.46420898 60.17700195 77.11420898 60.17700195 78.81420898 60.17700195 C78.81420898 59.84700195 78.81420898 59.51700195 78.81420898 59.17700195 C77.16420898 59.17700195 75.51420898 59.17700195 73.81420898 59.17700195 Z M82.81420898 60.17700195 C82.81420898 60.50700195 82.81420898 60.83700195 82.81420898 61.17700195 C85.45420898 61.17700195 88.09420898 61.17700195 90.81420898 61.17700195 C90.81420898 60.84700195 90.81420898 60.51700195 90.81420898 60.17700195 C88.17420898 60.17700195 85.53420898 60.17700195 82.81420898 60.17700195 Z M68.81420898 60.17700195 C66.83420898 60.83700195 64.85420898 61.49700195 62.81420898 62.17700195 C64.0025215 63.82511192 64.0025215 63.82511192 65.81420898 65.17700195 C68.1302509 65.10600586 68.1302509 65.10600586 70.50170898 64.36450195 C71.30995117 64.15180664 72.11819336 63.93911133 72.95092773 63.7199707 C73.56581055 63.54079102 74.18069336 63.36161133 74.81420898 63.17700195 C74.81420898 62.84700195 74.81420898 62.51700195 74.81420898 62.17700195 C73.16420898 62.17700195 71.51420898 62.17700195 69.81420898 62.17700195 C69.48420898 61.51700195 69.15420898 60.85700195 68.81420898 60.17700195 Z M56.81420898 67.17700195 C57.47420898 67.83700195 58.13420898 68.49700195 58.81420898 69.17700195 C59.47420898 68.51700195 60.13420898 67.85700195 60.81420898 67.17700195 C59.49420898 67.17700195 58.17420898 67.17700195 56.81420898 67.17700195 Z M16.81420898 102.17700195 C16.48420898 102.83700195 16.15420898 103.49700195 15.81420898 104.17700195 C16.47420898 104.17700195 17.13420898 104.17700195 17.81420898 104.17700195 C17.48420898 103.51700195 17.15420898 102.85700195 16.81420898 102.17700195 Z M-3.18579102 108.17700195 C-2.18579102 110.17700195 -2.18579102 110.17700195 -2.18579102 110.17700195 Z M31.81420898 113.17700195 C32.81420898 115.17700195 32.81420898 115.17700195 32.81420898 115.17700195 Z M33.81420898 114.17700195 C34.81420898 116.17700195 34.81420898 116.17700195 34.81420898 116.17700195 Z M3.81420898 117.17700195 C4.47420898 117.83700195 5.13420898 118.49700195 5.81420898 119.17700195 C5.81420898 118.51700195 5.81420898 117.85700195 5.81420898 117.17700195 C5.15420898 117.17700195 4.49420898 117.17700195 3.81420898 117.17700195 Z M2.81420898 118.17700195 C3.81420898 120.17700195 3.81420898 120.17700195 3.81420898 120.17700195 Z " fill="#3A2614" transform="translate(118.185791015625,96.822998046875)"/>
<path d="M0 0 C3.84165806 2.10601293 6.93911313 5.09700934 10.06640625 8.1328125 C9.73640625 9.4528125 9.40640625 10.7728125 9.06640625 12.1328125 C9.72640625 12.4628125 10.38640625 12.7928125 11.06640625 13.1328125 C10.73640625 13.7928125 10.40640625 14.4528125 10.06640625 15.1328125 C11.71640625 14.8028125 13.36640625 14.4728125 15.06640625 14.1328125 C15.06898438 13.54113281 15.0715625 12.94945312 15.07421875 12.33984375 C15.38375883 6.01490811 15.38375883 6.01490811 17.36328125 3.45703125 C23.47363411 -1.67022029 30.39986977 -1.70368317 38.06640625 -1.8671875 C43.56414404 -1.31741372 47.80245117 0.72164844 52.06640625 4.1328125 C52.06640625 4.7928125 52.06640625 5.4528125 52.06640625 6.1328125 C51.40640625 6.1328125 50.74640625 6.1328125 50.06640625 6.1328125 C49.97359375 7.3084375 49.97359375 7.3084375 49.87890625 8.5078125 C49.06640625 11.1328125 49.06640625 11.1328125 46.75390625 12.5703125 C44.06640625 13.1328125 44.06640625 13.1328125 42.2578125 12.20703125 C39.55756168 10.88337889 37.30655235 10.72139436 34.31640625 10.5078125 C33.3315625 10.43304688 32.34671875 10.35828125 31.33203125 10.28125 C30.584375 10.23226562 29.83671875 10.18328125 29.06640625 10.1328125 C28.73640625 11.1228125 28.40640625 12.1128125 28.06640625 13.1328125 C28.56140625 13.6278125 28.56140625 13.6278125 29.06640625 14.1328125 C29.06640625 14.7928125 29.06640625 15.4528125 29.06640625 16.1328125 C29.85015625 16.0709375 30.63390625 16.0090625 31.44140625 15.9453125 C38.61429819 16.31632415 45.47279065 18.2211363 50.77734375 23.26171875 C53.30196168 26.92623993 53.55396189 30.79427391 53.06640625 35.1328125 C50.35841079 40.75711076 46.57630082 44.18568247 40.75390625 46.3828125 C32.7495871 48.01080962 25.65542387 47.16841955 18.06640625 44.1328125 C15.95254561 42.60208583 14.69131079 41.20596657 13.06640625 39.1328125 C13.72640625 38.8028125 14.38640625 38.4728125 15.06640625 38.1328125 C15.71853917 36.10817995 15.71853917 36.10817995 16.06640625 34.1328125 C16.72640625 34.1328125 17.38640625 34.1328125 18.06640625 34.1328125 C18.39640625 33.1428125 18.72640625 32.1528125 19.06640625 31.1328125 C19.95328125 31.6278125 20.84015625 32.1228125 21.75390625 32.6328125 C27.24303811 35.04848416 33.19781232 34.37108624 39.06640625 34.1328125 C39.06640625 32.8128125 39.06640625 31.4928125 39.06640625 30.1328125 C38.12539063 29.95105469 37.184375 29.76929688 36.21484375 29.58203125 C34.96960938 29.33066406 33.724375 29.07929688 32.44140625 28.8203125 C31.21164062 28.57667969 29.981875 28.33304688 28.71484375 28.08203125 C23.47531338 26.71885579 20.04052478 25.38891271 16.69140625 21.0703125 C15.06640625 18.1328125 15.06640625 18.1328125 15.06640625 16.1328125 C14.07640625 16.6278125 14.07640625 16.6278125 13.06640625 17.1328125 C12.63377149 19.55018792 12.63377149 19.55018792 12.50390625 22.3828125 C12.26081384 26.05400398 11.86021721 29.53770171 11.06640625 33.1328125 C10.40640625 33.1328125 9.74640625 33.1328125 9.06640625 33.1328125 C8.98390625 34.0403125 8.90140625 34.9478125 8.81640625 35.8828125 C7.94052748 39.67828715 6.98595248 40.6439369 4.06640625 43.1328125 C-1.88473936 46.25364949 -7.31828674 47.73380446 -13.9609375 46.4921875 C-16.25527806 46.01332697 -16.25527806 46.01332697 -19.93359375 46.1328125 C-20.26359375 52.0728125 -20.59359375 58.0128125 -20.93359375 64.1328125 C-23.57817754 65.45510439 -25.61120676 65.22958444 -28.55859375 65.1953125 C-29.56148437 65.18628906 -30.564375 65.17726563 -31.59765625 65.16796875 C-32.36851562 65.15636719 -33.139375 65.14476562 -33.93359375 65.1328125 C-35.97603508 61.74680747 -36.19105076 59.1263501 -36.20825195 55.20263672 C-36.21778397 54.00814911 -36.22731598 52.8136615 -36.23713684 51.58297729 C-36.23576973 49.65471603 -36.23576973 49.65471603 -36.234375 47.6875 C-36.23826299 46.35279202 -36.24259787 45.01808527 -36.24736023 43.68338013 C-36.25481097 40.89092997 -36.25453839 38.0986063 -36.24926758 35.30615234 C-36.24345727 31.72353916 -36.26044629 28.14144034 -36.28361225 24.55891228 C-36.30185444 21.14341923 -36.29816544 17.7280416 -36.296875 14.3125 C-36.31068962 12.37816605 -36.31068962 12.37816605 -36.32478333 10.40475464 C-36.31855453 9.21657135 -36.31232574 8.02838806 -36.3059082 6.80419922 C-36.30653763 5.75481171 -36.30716705 4.70542419 -36.30781555 3.62423706 C-36.18432236 2.80206696 -36.06082916 1.97989685 -35.93359375 1.1328125 C-32.68493565 -1.03295957 -31.74758028 -1.11674216 -27.99609375 -1.0546875 C-27.14144531 -1.04824219 -26.28679688 -1.04179687 -25.40625 -1.03515625 C-22.93359375 -0.8671875 -22.93359375 -0.8671875 -20.79296875 -0.296875 C-18.7539165 0.34464498 -18.7539165 0.34464498 -16.12109375 -0.8046875 C-10.40845951 -2.70889891 -5.49339777 -2.21455957 0 0 Z M-19.93359375 13.1328125 C-19.93359375 13.7928125 -19.93359375 14.4528125 -19.93359375 15.1328125 C-20.59359375 15.1328125 -21.25359375 15.1328125 -21.93359375 15.1328125 C-22.76453319 24.18532555 -22.76453319 24.18532555 -19.87109375 32.4453125 C-16.33289408 34.47789529 -14.02211163 35.1328125 -9.93359375 35.1328125 C-6.39840834 33.93218349 -4.49319967 33.24819143 -2.79296875 29.859375 C-1.34863531 25.27689892 -1.24979472 20.87666827 -1.93359375 16.1328125 C-4.4399417 12.33531561 -6.02848191 11.39611776 -10.37109375 10.1328125 C-14.39567817 10.1328125 -16.5306843 11.05786771 -19.93359375 13.1328125 Z " fill="#7A4D29" transform="translate(655.93359375,148.8671875)"/>
<path d="M0 0 C5.15171623 -0.09038099 9.91913204 0.15318867 15 1 C14.67 1.66 14.34 2.32 14 3 C14.99 3.33 15.98 3.66 17 4 C17 4.66 17 5.32 17 6 C15.6696875 6.4021875 15.6696875 6.4021875 14.3125 6.8125 C11.2285477 7.9180678 8.7801557 9.30101596 6 11 C5.34 11 4.68 11 4 11 C3.75378906 11.51433594 3.50757813 12.02867187 3.25390625 12.55859375 C2.27881732 14.45713139 1.22959686 16.31766627 0.15234375 18.16015625 C-4.97719666 27.08399118 -8.69776107 36.16634082 -11.9375 45.9375 C-12.31463135 47.07388916 -12.6917627 48.21027832 -13.08032227 49.38110352 C-14.97405467 55.27017571 -16.55861482 61.07480862 -17.60766602 67.17407227 C-18 69 -18 69 -19 70 C-21.14611082 70.17123526 -23.29763942 70.27527651 -25.44921875 70.3515625 C-26.42457329 70.38629166 -26.42457329 70.38629166 -27.41963196 70.42172241 C-28.80075052 70.46944376 -30.18195724 70.51466769 -31.56323242 70.55761719 C-33.66165683 70.62418024 -35.75943674 70.70216468 -37.85742188 70.78125 C-39.20049763 70.82621935 -40.54359627 70.87051115 -41.88671875 70.9140625 C-43.10576904 70.9548291 -44.32481934 70.9955957 -45.58081055 71.03759766 C-48.84067285 71.00175197 -51.79626104 70.55298738 -55 70 C-56.010625 70.165 -57.02125 70.33 -58.0625 70.5 C-63.76987243 71.22474571 -69.29288259 70.55783854 -75 70 C-76.33257403 60.58997722 -76.33257403 60.58997722 -75 56 C-73.8553125 56.2784375 -73.8553125 56.2784375 -72.6875 56.5625 C-69.91032625 57.22819173 -69.91032625 57.22819173 -67 56 C-65.82244087 53.05610218 -65.96651304 52.10046087 -67 49 C-68.32796291 48.64587656 -69.66216607 48.31478446 -71 48 C-72.75 46.4375 -72.75 46.4375 -74 45 C-73.01 45 -72.02 45 -71 45 C-69.88214887 42.88214887 -69.88214887 42.88214887 -69 40 C-66.9375 39.3125 -66.9375 39.3125 -65 39 C-65 38.34 -65 37.68 -65 37 C-63.906875 36.4225 -62.81375 35.845 -61.6875 35.25 C-58.70330868 33.55855553 -56.81055186 31.98208542 -55 29 C-54.34 29.33 -53.68 29.66 -53 30 C-53.66 31.32 -54.32 32.64 -55 34 C-52.69010775 34 -51.15342034 33.87482701 -49 33 C-48.773125 32.2575 -48.54625 31.515 -48.3125 30.75 C-46.25972831 26.44895455 -42.29702066 24.79999974 -38 23 C-37.01 23 -36.02 23 -35 23 C-35 22.34 -35 21.68 -35 21 C-33.02 20.01 -31.04 19.02 -29 18 C-29.66 17.01 -30.32 16.02 -31 15 C-29.02 14.34 -27.04 13.68 -25 13 C-24.505 14.485 -24.505 14.485 -24 16 C-23.34 16.33 -22.68 16.66 -22 17 C-22.2475 16.1028125 -22.2475 16.1028125 -22.5 15.1875 C-23 13 -23 13 -23 10 C-20.525 10.495 -20.525 10.495 -18 11 C-18 9.68 -18 8.36 -18 7 C-14.86567988 5.99253996 -13.13816549 6.21545863 -10 7 C-7.81296615 6.62092718 -7.81296615 6.62092718 -6 6 C-6.99 5.34 -7.98 4.68 -9 4 C-8 3 -8 3 -4.5 2.5625 C-2.7675 2.2840625 -2.7675 2.2840625 -1 2 C-0.67 1.34 -0.34 0.68 0 0 Z M4 3 C4 3.33 4 3.66 4 4 C6.64 4 9.28 4 12 4 C12 3.67 12 3.34 12 3 C9.36 3 6.72 3 4 3 Z M-62 45 C-62.33 45.66 -62.66 46.32 -63 47 C-62.34 47 -61.68 47 -61 47 C-61.33 46.34 -61.66 45.68 -62 45 Z M-47 56 C-46 58 -46 58 -46 58 Z M-45 57 C-44 59 -44 59 -44 59 Z M-75 60 C-74.34 60.66 -73.68 61.32 -73 62 C-73 61.34 -73 60.68 -73 60 C-73.66 60 -74.32 60 -75 60 Z " fill="#372212" transform="translate(197,154)"/>
<path d="M0 0 C1.75 2.625 1.75 2.625 3 5 C3.66 5.33 4.32 5.66 5 6 C7.32138321 12.81804858 7.23609452 19.35576754 7.125 26.5 C7.11597656 27.60859375 7.10695313 28.7171875 7.09765625 29.859375 C7.07426167 32.57314592 7.04148175 35.28645545 7 38 C7.66 37.67 8.32 37.34 9 37 C9.65213292 34.97536745 9.65213292 34.97536745 10 33 C10.66 33 11.32 33 12 33 C12.495 32.01 12.495 32.01 13 31 C15.0625 29.875 15.0625 29.875 17 29 C17.33 29.66 17.66 30.32 18 31 C18.99 31 19.98 31 21 31 C21.33 31.66 21.66 32.32 22 33 C24.01927253 33.54462142 24.01927253 33.54462142 26.375 33.75 C27.16648437 33.84796875 27.95796875 33.9459375 28.7734375 34.046875 C31.29195501 34.19324313 31.29195501 34.19324313 34 32 C33.505 30.02 33.505 30.02 33 28 C31.906875 28.020625 30.81375 28.04125 29.6875 28.0625 C26 28 26 28 23 27 C23 26.34 23 25.68 23 25 C22.06027344 24.96132812 22.06027344 24.96132812 21.1015625 24.921875 C20.28429687 24.86515625 19.46703125 24.8084375 18.625 24.75 C17.40683594 24.68039063 17.40683594 24.68039063 16.1640625 24.609375 C15.44992187 24.40828125 14.73578125 24.2071875 14 24 C12.8984375 22.015625 12.8984375 22.015625 12 20 C11.01 19.67 10.02 19.34 9 19 C7.75556253 13.15655451 7.66731697 8.99090932 10.6875 3.7265625 C13.41618151 0.13704695 16.80931383 -1.60310461 21 -3 C23.92960457 -3.14935239 26.81972621 -3.2311558 29.75 -3.25 C30.53632813 -3.270625 31.32265625 -3.29125 32.1328125 -3.3125 C37.52132374 -3.34830406 41.1907673 -2.44319308 46 0 C46 0.66 46 1.32 46 2 C46.99 2.33 47.98 2.66 49 3 C46.375 8.75 46.375 8.75 43 11 C40.95703125 11.1953125 40.95703125 11.1953125 38.8125 11.125 C37.554375 11.08375 36.29625 11.0425 35 11 C34.505 10.01 34.505 10.01 34 9 C31.36 9 28.72 9 26 9 C26.495 11.475 26.495 11.475 27 14 C28.98 14 30.96 14 33 14 C33 14.66 33 15.32 33 16 C36.63 16.66 40.26 17.32 44 18 C44.495 19.485 44.495 19.485 45 21 C47.01508358 21.73323796 47.01508358 21.73323796 49 22 C51.65537833 31.49441027 51.65537833 31.49441027 49.9375 35.875 C46.04890213 42.14693205 41.64235354 43.77642031 34.69140625 45.4609375 C27.81566463 46.83808169 22.22872711 45.45973031 15.57421875 43.65625 C13.11975605 42.91765641 13.11975605 42.91765641 11 43 C11 42.34 11 41.68 11 41 C9.35 40.67 7.7 40.34 6 40 C6 41.32 6 42.64 6 44 C1.05 44 -3.9 44 -9 44 C-10.39850246 41.20299508 -10.0101384 39.01884641 -9.87890625 35.8984375 C-9.83056641 34.68671875 -9.78222656 33.475 -9.73242188 32.2265625 C-9.64831055 30.32003906 -9.64831055 30.32003906 -9.5625 28.375 C-9.51029297 27.09625 -9.45808594 25.8175 -9.40429688 24.5 C-9.2743123 21.333103 -9.13933598 18.16649713 -9 15 C-9.66 15 -10.32 15 -11 15 C-11 14.01 -11 13.02 -11 12 C-13.70335947 9.83731243 -15.1936512 8.94374311 -18.6875 9.1875 C-22.17351559 10.41231629 -24.09611736 12.91176559 -26 16 C-26.50317193 19.09151231 -26.50317193 19.09151231 -26.51171875 22.515625 C-26.54716797 23.76601562 -26.58261719 25.01640625 -26.61914062 26.3046875 C-26.65297852 28.25761719 -26.65297852 28.25761719 -26.6875 30.25 C-26.72166016 31.56742188 -26.75582031 32.88484375 -26.79101562 34.2421875 C-26.87350706 37.49470678 -26.9426567 40.74695596 -27 44 C-28.93596892 44.22211116 -30.87389328 44.42722992 -32.8125 44.625 C-33.89144531 44.74101562 -34.97039062 44.85703125 -36.08203125 44.9765625 C-39 45 -39 45 -42 43 C-42.38095093 41.10253906 -42.38095093 41.10253906 -42.38818359 38.765625 C-42.39764008 37.89131836 -42.40709656 37.01701172 -42.4168396 36.11621094 C-42.41076691 35.17036133 -42.40469421 34.22451172 -42.3984375 33.25 C-42.40130768 32.28094727 -42.40417786 31.31189453 -42.40713501 30.31347656 C-42.40917869 28.26236386 -42.40362767 26.2112318 -42.39111328 24.16015625 C-42.37506414 21.01257939 -42.39095194 17.86628671 -42.41015625 14.71875 C-42.40817387 12.72916382 -42.40433031 10.73957844 -42.3984375 8.75 C-42.40451019 7.80415039 -42.41058289 6.85830078 -42.4168396 5.88378906 C-42.40265488 4.5723291 -42.40265488 4.5723291 -42.38818359 3.234375 C-42.38579681 2.46319336 -42.38341003 1.69201172 -42.38095093 0.89746094 C-42 -1 -42 -1 -39 -3 C-36.40625 -3.1953125 -36.40625 -3.1953125 -33.5 -3.125 C-32.06140625 -3.09792969 -32.06140625 -3.09792969 -30.59375 -3.0703125 C-29.30984375 -3.03550781 -29.30984375 -3.03550781 -28 -3 C-25.3717266 -3 -22.97555624 -3.2363985 -20.375 -3.5625 C-13.08032351 -4.2962211 -6.28264419 -4.18842946 0 0 Z M23 9 C24 11 24 11 24 11 Z M10 10 C10 12.31 10 14.62 10 17 C10.33 17 10.66 17 11 17 C11 14.69 11 12.38 11 10 C10.67 10 10.34 10 10 10 Z M10 35 C11 37 11 37 11 37 Z " fill="#221308" transform="translate(435,150)"/>
<path d="M0 0 C0 0.66 0 1.32 0 2 C0.99 2.33 1.98 2.66 3 3 C3 3.66 3 4.32 3 5 C3.66 5 4.32 5 5 5 C5.495 6.98 5.495 6.98 6 9 C6.66 9 7.32 9 8 9 C8 9.99 8 10.98 8 12 C8.66 12.33 9.32 12.66 10 13 C9.67 13.66 9.34 14.32 9 15 C9.66 15 10.32 15 11 15 C13.24702457 27.35863514 12.46883114 37.87449465 5.69140625 48.63671875 C-0.06660212 56.68197294 -8.39092235 60.3726562 -18 62 C-27.00892737 62.62130534 -35.86547678 60.77556641 -43 55 C-46.86772551 51.50961357 -50.45146773 47.57651326 -53 43 C-53 42.01 -53 41.02 -53 40 C-53.66 39.67 -54.32 39.34 -55 39 C-56.89257602 28.22796957 -55.43273093 19.29819278 -52 9 C-51.34 9 -50.68 9 -50 9 C-49.91105469 8.13568359 -49.91105469 8.13568359 -49.8203125 7.25390625 C-47.88235955 1.9291498 -40.69249552 -1.53408577 -35.890625 -4.1484375 C-23.7064385 -9.5935828 -10.92625986 -7.04136746 0 0 Z M-35.875 11.375 C-41.13460605 17.87216042 -42.31769531 22.50535157 -41.5625 30.8125 C-41.46066406 31.97394531 -41.35882812 33.13539063 -41.25390625 34.33203125 C-41.17011719 35.21246094 -41.08632813 36.09289062 -41 37 C-40.34 37 -39.68 37 -39 37 C-38.67 38.65 -38.34 40.3 -38 42 C-37.34 42 -36.68 42 -36 42 C-35.67 42.99 -35.34 43.98 -35 45 C-32.04622502 47.36980013 -32.04622502 47.36980013 -28 47 C-28 47.66 -28 48.32 -28 49 C-19.89364595 49.68184286 -14.71972553 48.64573617 -8 44 C-8 43.34 -8 42.68 -8 42 C-7.34 41.67 -6.68 41.34 -6 41 C-2.43012179 36.54200575 -2.54533856 32.45238277 -2.625 27 C-2.61339844 26.2059375 -2.60179687 25.411875 -2.58984375 24.59375 C-2.61303277 19.95594662 -2.92174578 16.72393681 -6 13 C-6.66 13 -7.32 13 -8 13 C-8.226875 12.38125 -8.45375 11.7625 -8.6875 11.125 C-10.47621004 8.22899327 -11.72178232 7.90674106 -15 7 C-22.91318353 5.24834384 -29.51870272 6.12414573 -35.875 11.375 Z " fill="#7D4F2A" transform="translate(604,134)"/>
<path d="M0 0 C0.87785156 0.00515625 1.75570312 0.0103125 2.66015625 0.015625 C3.53542969 0.01046875 4.41070313 0.0053125 5.3125 0 C7.72265625 0.265625 7.72265625 0.265625 10.72265625 2.265625 C11.015625 5.0859375 11.015625 5.0859375 10.91015625 8.390625 C10.86955078 10.03417969 10.86955078 10.03417969 10.828125 11.7109375 C10.79332031 12.55398437 10.75851562 13.39703125 10.72265625 14.265625 C11.75326172 14.21341797 11.75326172 14.21341797 12.8046875 14.16015625 C13.70574219 14.13308594 14.60679687 14.10601562 15.53515625 14.078125 C16.42847656 14.04332031 17.32179688 14.00851563 18.2421875 13.97265625 C20.72265625 14.265625 20.72265625 14.265625 22.56640625 15.5546875 C23.72265625 17.265625 23.72265625 17.265625 23.41015625 20.828125 C23.18328125 21.9625 22.95640625 23.096875 22.72265625 24.265625 C22.72265625 24.925625 22.72265625 25.585625 22.72265625 26.265625 C22.09617187 26.32621094 21.4696875 26.38679688 20.82421875 26.44921875 C20.00695312 26.53300781 19.1896875 26.61679688 18.34765625 26.703125 C17.53554688 26.78433594 16.7234375 26.86554688 15.88671875 26.94921875 C13.6799282 27.15652614 13.6799282 27.15652614 11.72265625 28.265625 C11.66458582 31.36971307 11.62903711 34.4736614 11.59765625 37.578125 C11.58089844 38.45919922 11.56414063 39.34027344 11.546875 40.24804688 C11.54042969 41.09560547 11.53398438 41.94316406 11.52734375 42.81640625 C11.51687012 43.59669189 11.50639648 44.37697754 11.49560547 45.1809082 C11.59384766 47.5722098 11.59384766 47.5722098 13.72265625 50.265625 C15.92990698 50.62925318 15.92990698 50.62925318 18.34765625 50.453125 C19.16492188 50.42605469 19.9821875 50.39898437 20.82421875 50.37109375 C21.76394531 50.31888672 21.76394531 50.31888672 22.72265625 50.265625 C22.39265625 51.915625 22.06265625 53.565625 21.72265625 55.265625 C22.38265625 55.265625 23.04265625 55.265625 23.72265625 55.265625 C24.21765625 57.740625 24.21765625 57.740625 24.72265625 60.265625 C18.47972916 62.87791364 13.35905201 64.04156189 6.72265625 62.265625 C3.90750079 61.10202741 1.38556934 59.76653965 -1.27734375 58.265625 C-1.27734375 57.275625 -1.27734375 56.285625 -1.27734375 55.265625 C-1.93734375 54.935625 -2.59734375 54.605625 -3.27734375 54.265625 C-4.58064508 49.08541466 -4.42656994 43.82116039 -4.40234375 38.515625 C-4.40814453 37.22205078 -4.40814453 37.22205078 -4.4140625 35.90234375 C-4.41277344 35.07863281 -4.41148437 34.25492188 -4.41015625 33.40625 C-4.40902832 32.65891602 -4.40790039 31.91158203 -4.40673828 31.14160156 C-4.27734375 29.265625 -4.27734375 29.265625 -3.27734375 27.265625 C-4.26734375 27.595625 -5.25734375 27.925625 -6.27734375 28.265625 C-6.27734375 27.605625 -6.27734375 26.945625 -6.27734375 26.265625 C-6.99921875 26.306875 -7.72109375 26.348125 -8.46484375 26.390625 C-11.48463744 26.25641195 -13.54670104 25.51391881 -16.27734375 24.265625 C-16.27734375 24.925625 -16.27734375 25.585625 -16.27734375 26.265625 C-15.61734375 26.265625 -14.95734375 26.265625 -14.27734375 26.265625 C-14.60734375 26.925625 -14.93734375 27.585625 -15.27734375 28.265625 C-15.43360951 30.74395159 -15.53547573 33.19873831 -15.59375 35.6796875 C-15.6145311 36.40932709 -15.63531219 37.13896667 -15.65672302 37.89071655 C-15.72216292 40.22392263 -15.78107743 42.55724221 -15.83984375 44.890625 C-15.88303428 46.47136595 -15.92664874 48.05209539 -15.97070312 49.6328125 C-16.07783856 53.51030004 -16.17912157 57.38790185 -16.27734375 61.265625 C-20.89734375 61.265625 -25.51734375 61.265625 -30.27734375 61.265625 C-30.27210693 60.09990967 -30.26687012 58.93419434 -30.26147461 57.7331543 C-30.24338504 53.41138475 -30.23189722 49.08961856 -30.22241211 44.76782227 C-30.21738096 42.89672279 -30.2105554 41.02562725 -30.2019043 39.15454102 C-30.18978546 36.46629872 -30.18410328 33.77810836 -30.1796875 31.08984375 C-30.17452621 30.25225021 -30.16936493 29.41465668 -30.16404724 28.55168152 C-30.16372311 25.20186758 -30.2104986 22.46616044 -31.27734375 19.265625 C-30.61734375 19.265625 -29.95734375 19.265625 -29.27734375 19.265625 C-28.94734375 17.615625 -28.61734375 15.965625 -28.27734375 14.265625 C-24.64734375 14.265625 -21.01734375 14.265625 -17.27734375 14.265625 C-16.94734375 15.585625 -16.61734375 16.905625 -16.27734375 18.265625 C-15.61734375 18.265625 -14.95734375 18.265625 -14.27734375 18.265625 C-14.27734375 17.275625 -14.27734375 16.285625 -14.27734375 15.265625 C-11.20117188 14.97265625 -11.20117188 14.97265625 -8.125 14.6796875 C-7.51527344 14.54304687 -6.90554688 14.40640625 -6.27734375 14.265625 C-5.94734375 13.605625 -5.61734375 12.945625 -5.27734375 12.265625 C-4.61734375 12.265625 -3.95734375 12.265625 -3.27734375 12.265625 C-3.37273438 11.56695312 -3.468125 10.86828125 -3.56640625 10.1484375 C-3.67726563 9.23835937 -3.788125 8.32828125 -3.90234375 7.390625 C-4.07636719 6.03324219 -4.07636719 6.03324219 -4.25390625 4.6484375 C-4.26164063 3.86210937 -4.269375 3.07578125 -4.27734375 2.265625 C-2.27734375 0.265625 -2.27734375 0.265625 0 0 Z M8.72265625 12.265625 C9.72265625 14.265625 9.72265625 14.265625 9.72265625 14.265625 Z M-12.27734375 17.265625 C-11.27734375 21.265625 -11.27734375 21.265625 -11.27734375 21.265625 Z M-16.27734375 20.265625 C-15.61734375 20.925625 -14.95734375 21.585625 -14.27734375 22.265625 C-14.27734375 21.605625 -14.27734375 20.945625 -14.27734375 20.265625 C-14.93734375 20.265625 -15.59734375 20.265625 -16.27734375 20.265625 Z M8.72265625 29.265625 C8.72265625 31.245625 8.72265625 33.225625 8.72265625 35.265625 C9.05265625 35.265625 9.38265625 35.265625 9.72265625 35.265625 C9.72265625 33.285625 9.72265625 31.305625 9.72265625 29.265625 C9.39265625 29.265625 9.06265625 29.265625 8.72265625 29.265625 Z M8.72265625 40.265625 C9.72265625 42.265625 9.72265625 42.265625 9.72265625 42.265625 Z " fill="#221409" transform="translate(518.27734375,132.734375)"/>
<path d="M0 0 C0.07458679 5.81662241 0.12880761 11.63296163 0.16479492 17.44995117 C0.17980956 19.42558649 0.20022751 21.40118889 0.22631836 23.37670898 C0.26302572 26.22908695 0.27979993 29.08102129 0.29296875 31.93359375 C0.30845261 32.80584091 0.32393646 33.67808807 0.33988953 34.57676697 C0.34150226 40.55666253 -0.78071023 45.45185422 -3 51 C-3.66 51 -4.32 51 -5 51 C-5 51.99 -5 52.98 -5 54 C-5.66 54 -6.32 54 -7 54 C-7.226875 54.5775 -7.45375 55.155 -7.6875 55.75 C-10.49561871 60.56391778 -14.88036122 62.84559936 -20.04296875 64.47265625 C-26.60386072 65.64269643 -33.36322993 65.20573225 -40 65 C-42.60950696 57.17147912 -37.958598 46.90749631 -35.4375 39.375 C-35.09033936 38.33754639 -34.74317871 37.30009277 -34.38549805 36.23120117 C-32.11771234 29.68537481 -29.54605498 23.44045933 -26.3125 17.3125 C-25.95663818 16.63687012 -25.60077637 15.96124023 -25.23413086 15.26513672 C-21.12271024 7.87690913 -15.39724794 2.59210701 -7.375 -0.3125 C-4.16449741 -0.96649127 -2.99163144 -0.90794055 0 0 Z " fill="#A56839" transform="translate(220,159)"/>
<path d="M0 0 C5.20600797 6.65212129 3.1792738 16.89029221 2.8125 24.875 C2.76029297 26.12667969 2.70808594 27.37835938 2.65429688 28.66796875 C2.52543258 31.73728198 2.39050459 34.80620129 2.25 37.875 C3.24 38.205 4.23 38.535 5.25 38.875 C4.26 38.875 3.27 38.875 2.25 38.875 C2.25 39.865 2.25 40.855 2.25 41.875 C1.21359375 41.86339844 0.1771875 41.85179687 -0.890625 41.83984375 C-2.26041486 41.83046163 -3.63020668 41.82136188 -5 41.8125 C-5.68191406 41.80412109 -6.36382812 41.79574219 -7.06640625 41.78710938 C-10.46456933 41.77061344 -13.49607641 41.88215472 -16.75 42.875 C-24.23979252 44.10283484 -30.22908354 44.34648557 -36.75 39.875 C-37.41 39.545 -38.07 39.215 -38.75 38.875 C-39.245 37.39 -39.245 37.39 -39.75 35.875 C-40.08 35.215 -40.41 34.555 -40.75 33.875 C-40.42 33.215 -40.09 32.555 -39.75 31.875 C-40.41 31.875 -41.07 31.875 -41.75 31.875 C-41.82427838 28.53247276 -41.81546953 26.0714086 -40.75 22.875 C-40.40772583 21.54393378 -40.07248257 20.21099921 -39.75 18.875 C-39.09 18.875 -38.43 18.875 -37.75 18.875 C-37.75 18.215 -37.75 17.555 -37.75 16.875 C-30.95492069 13.7059283 -24.34092519 11.51121764 -16.75 11.875 C-14.4296875 12.8671875 -14.4296875 12.8671875 -12.75 13.875 C-13.35183749 11.85454558 -14.02306096 9.85388961 -14.75 7.875 C-17.51452033 6.49273984 -19.7961363 6.77974613 -22.875 6.8125 C-23.97070312 6.82152344 -25.06640625 6.83054688 -26.1953125 6.83984375 C-27.03835938 6.85144531 -27.88140625 6.86304688 -28.75 6.875 C-28.75 7.865 -28.75 8.855 -28.75 9.875 C-35.24465992 8.52705171 -35.24465992 8.52705171 -37.6875 5.375 C-38.90301191 2.51497197 -38.75 0.98969558 -38.75 -2.125 C-26.12969572 -6.2369434 -11.40314255 -8.81151924 0 0 Z M-11.75 9.875 C-10.75 11.875 -10.75 11.875 -10.75 11.875 Z M-21.75 22.875 C-21.75 23.535 -21.75 24.195 -21.75 24.875 C-22.74 24.875 -23.73 24.875 -24.75 24.875 C-24.75 26.525 -24.75 28.175 -24.75 29.875 C-25.74 30.37 -25.74 30.37 -26.75 30.875 C-22.37671934 32.64513741 -19.29931253 33.425902 -14.75 31.875 C-13.07717969 28.98558309 -12.75 27.2158643 -12.75 23.875 C-15.70664519 22.3966774 -18.49229737 22.81467217 -21.75 22.875 Z M-27.75 26.875 C-26.75 28.875 -26.75 28.875 -26.75 28.875 Z " fill="#211308" transform="translate(385.75,152.125)"/>
<path d="M0 0 C1.2792334 0.02626465 2.5584668 0.0525293 3.87646484 0.07958984 C5.0670752 0.12035645 6.25768555 0.16112305 7.484375 0.203125 C8.54881836 0.23567383 9.61326172 0.26822266 10.70996094 0.30175781 C11.96728027 0.5236377 11.96728027 0.5236377 13.25 0.75 C15.55143236 4.20214853 15.38833854 4.98479324 14.875 8.9375 C14.76414062 9.83855469 14.65328125 10.73960937 14.5390625 11.66796875 C14.39597656 12.69857422 14.39597656 12.69857422 14.25 13.75 C-1.17857143 16.03571429 -1.17857143 16.03571429 -5.75 13.75 C-5.75 31.24 -5.75 48.73 -5.75 66.75 C-10.04 66.75 -14.33 66.75 -18.75 66.75 C-18.76981934 65.2865918 -18.78963867 63.82318359 -18.81005859 62.31542969 C-18.88610456 56.88833344 -18.97482386 51.46150565 -19.06738281 46.03466797 C-19.10567666 43.68543801 -19.14052879 41.33614934 -19.171875 38.98681641 C-19.21751627 35.61078906 -19.27551299 32.23516609 -19.3359375 28.859375 C-19.34748871 27.80820496 -19.35903992 26.75703491 -19.37094116 25.67401123 C-19.39081085 24.69329651 -19.41068054 23.71258179 -19.43115234 22.70214844 C-19.44447601 21.84055115 -19.45779968 20.97895386 -19.4715271 20.09124756 C-19.76997681 17.58204596 -20.4903406 15.92274086 -21.75 13.75 C-23.55597656 13.76740234 -23.55597656 13.76740234 -25.3984375 13.78515625 C-26.97395679 13.79453434 -28.54947775 13.80363452 -30.125 13.8125 C-31.31609375 13.82506836 -31.31609375 13.82506836 -32.53125 13.83789062 C-38.5234375 13.86328125 -38.5234375 13.86328125 -40.75 12.75 C-40.75 9.12 -40.75 5.49 -40.75 1.75 C-28.51796184 -2.32734605 -12.67146121 -0.34434173 0 0 Z " fill="#231509" transform="translate(297.75,127.25)"/>
<path d="M0 0 C0.99 -0.33 1.98 -0.66 3 -1 C13.18421816 -2.70887728 13.18421816 -2.70887728 18 0 C18.66 0.33 19.32 0.66 20 1 C19.39202825 8.4172553 19.39202825 8.4172553 17.84375 10.71875 C15.21059287 12.54857105 12.98684162 12.51683647 9.8125 12.6875 C8.18248047 12.78611328 8.18248047 12.78611328 6.51953125 12.88671875 C5.27236328 12.94279297 5.27236328 12.94279297 4 13 C3.11052654 16.78146065 2.90629681 20.2259707 2.97265625 24.10546875 C2.98490234 25.25337891 2.99714844 26.40128906 3.00976562 27.58398438 C3.04509421 29.99810441 3.08419306 32.41217204 3.12695312 34.82617188 C3.13791016 35.97021484 3.14886719 37.11425781 3.16015625 38.29296875 C3.17699463 39.3399292 3.19383301 40.38688965 3.21118164 41.46557617 C3 44 3 44 1 46 C-2.22265625 46.44921875 -2.22265625 46.44921875 -6.0625 46.6875 C-7.33222656 46.77386719 -8.60195313 46.86023438 -9.91015625 46.94921875 C-10.92980469 46.96597656 -11.94945312 46.98273438 -13 47 C-14.54888767 45.45111233 -14.1858767 43.94448535 -14.25292969 41.78735352 C-14.28255798 40.89295059 -14.31218628 39.99854767 -14.3427124 39.07704163 C-14.38189789 37.61771461 -14.38189789 37.61771461 -14.421875 36.12890625 C-14.44977112 35.13624252 -14.47766724 34.1435788 -14.50640869 33.12083435 C-14.5629087 31.01674633 -14.61651353 28.91257892 -14.66748047 26.80834961 C-14.74957215 23.57932917 -14.85305687 20.35142675 -14.95703125 17.12304688 C-15.00914049 15.08336683 -15.05996467 13.04365346 -15.109375 11.00390625 C-15.14359558 10.03304581 -15.17781616 9.06218536 -15.21307373 8.06190491 C-15.23009338 7.16434982 -15.24711304 6.26679474 -15.26464844 5.34204102 C-15.28605896 4.55007828 -15.30746948 3.75811554 -15.32952881 2.94215393 C-15.2207843 2.30124313 -15.11203979 1.66033234 -15 1 C-10.13780157 -2.24146562 -5.14380064 -3.04817816 0 0 Z M-13 7 C-13 19.54 -13 32.08 -13 45 C-12.67 45 -12.34 45 -12 45 C-12 32.46 -12 19.92 -12 7 C-12.33 7 -12.66 7 -13 7 Z " fill="#211308" transform="translate(326,148)"/>
<path d="M0 0 C2.33201128 2.69638804 3.04487598 4.05760435 2.875 7.625 C1.91277311 10.23675871 1.13790341 11.25566517 -1 13 C-5.92069598 14.37300319 -10.44156632 14.49978621 -15 12 C-16.12802276 6.88051209 -16.12802276 6.88051209 -16 4 C-13.92007029 1.20695153 -12.23123106 -0.38438447 -9.125 -1.9375 C-5.71055328 -2.0379249 -3.16005772 -1.26402309 0 0 Z " fill="#21140A" transform="translate(502,128)"/>
<path d="M0 0 C0.99 0.66 1.98 1.32 3 2 C2.835 3.11375 2.67 4.2275 2.5 5.375 C1.9544542 8.72032033 1.9544542 8.72032033 2 11 C1.37351562 11.06058594 0.74703125 11.12117187 0.1015625 11.18359375 C-0.71570313 11.26738281 -1.53296875 11.35117188 -2.375 11.4375 C-3.18710937 11.51871094 -3.99921875 11.59992188 -4.8359375 11.68359375 C-7.04272805 11.89090114 -7.04272805 11.89090114 -9 13 C-9 13.55985596 -9 14.11971191 -9 14.6965332 C-9 21.46435547 -9 28.23217773 -9 35 C-11.01176943 33.34295315 -11.91346615 32.41634474 -12.45166016 29.8269043 C-12.54645308 27.11259643 -12.60656157 24.40348016 -12.625 21.6875 C-12.67011719 20.74970703 -12.71523438 19.81191406 -12.76171875 18.84570312 C-12.82889164 12.03725105 -12.82889164 12.03725105 -10.39746094 8.99462891 C-8.66261788 7.50518347 -6.94108983 6.2047819 -5 5 C-5.33 4.01 -5.66 3.02 -6 2 C-3.1875 0.875 -3.1875 0.875 0 0 Z " fill="#1E1209" transform="translate(539,148)"/>
<path d="M0 0 C3.95092059 -0.07409401 7.90157294 -0.12857406 11.85302734 -0.16479492 C13.85919374 -0.18732251 15.86516526 -0.2254357 17.87109375 -0.26367188 C19.12792969 -0.27333984 20.38476562 -0.28300781 21.6796875 -0.29296875 C22.84226074 -0.3086792 24.00483398 -0.32438965 25.20263672 -0.34057617 C26.1257666 -0.22818604 27.04889648 -0.1157959 28 0 C30.30143236 3.45214853 30.13833854 4.23479324 29.625 8.1875 C29.45871094 9.53908203 29.45871094 9.53908203 29.2890625 10.91796875 C29.14597656 11.94857422 29.14597656 11.94857422 29 13 C20.42857143 14.42857143 20.42857143 14.42857143 17 12 C18.65 11.34 20.3 10.68 22 10 C22 8.35 22 6.7 22 5 C23.32 4.34 24.64 3.68 26 3 C25.67 2.34 25.34 1.68 25 1 C16.75 1 8.5 1 0 1 C0 0.67 0 0.34 0 0 Z " fill="#160C05" transform="translate(283,128)"/>
<path d="M0 0 C0.98291016 0.00322266 1.96582031 0.00644531 2.97851562 0.00976562 C4.51475586 0.02233398 4.51475586 0.02233398 6.08203125 0.03515625 C7.11779297 0.03966797 8.15355469 0.04417969 9.22070312 0.04882812 C11.77870391 0.06061615 14.33658858 0.0770711 16.89453125 0.09765625 C16.89453125 0.42765625 16.89453125 0.75765625 16.89453125 1.09765625 C7.48953125 1.59265625 7.48953125 1.59265625 -2.10546875 2.09765625 C-2.43546875 3.41765625 -2.76546875 4.73765625 -3.10546875 6.09765625 C-3.43880208 7.43098958 -3.77213542 8.76432292 -4.10546875 10.09765625 C-3.05359375 10.05640625 -2.00171875 10.01515625 -0.91796875 9.97265625 C2.63463298 10.089135 4.74319766 10.56973693 7.89453125 12.09765625 C7.89453125 12.42765625 7.89453125 12.75765625 7.89453125 13.09765625 C5.60292806 13.12458109 3.31123579 13.14401749 1.01953125 13.16015625 C-0.25664062 13.17175781 -1.5328125 13.18335938 -2.84765625 13.1953125 C-6.10546875 13.09765625 -6.10546875 13.09765625 -8.10546875 12.09765625 C-8.10546875 8.46765625 -8.10546875 4.83765625 -8.10546875 1.09765625 C-5.10530963 0.09760321 -3.13123119 -0.0180996 0 0 Z " fill="#170D07" transform="translate(265.10546875,127.90234375)"/>
<path d="M0 0 C0.86625 0.680625 0.86625 0.680625 1.75 1.375 C3.78471242 2.84451453 5.74902529 3.91234415 8 5 C7.88326642 9.87097377 7.6897142 13.08659471 4.6875 17.0625 C2 19 2 19 -2 19 C-2 18.34 -2 17.68 -2 17 C-2.99 17.33 -3.98 17.66 -5 18 C-4.67 16.35 -4.34 14.7 -4 13 C-2.8553125 13.2784375 -2.8553125 13.2784375 -1.6875 13.5625 C1.08967375 14.22819173 1.08967375 14.22819173 4 13 C5.17755913 10.05610218 5.03348696 9.10046087 4 6 C2.67203709 5.64587656 1.33783393 5.31478446 0 5 C-1.75 3.4375 -1.75 3.4375 -3 2 C-2.01 2 -1.02 2 0 2 C0 1.34 0 0.68 0 0 Z " fill="#2E1C0A" transform="translate(126,197)"/>
<path d="M0 0 C0.33 1.65 0.66 3.3 1 5 C-6.42857143 7.42857143 -6.42857143 7.42857143 -10 6 C-10.33 6.66 -10.66 7.32 -11 8 C-12.32 7.34 -13.64 6.68 -15 6 C-15 5.01 -15 4.02 -15 3 C-13.35 3.33 -11.7 3.66 -10 4 C-10 2.68 -10 1.36 -10 0 C-6.30581799 -1.231394 -3.7943739 -0.64432764 0 0 Z " fill="#1B1208" transform="translate(189,161)"/>
<path d="M0 0 C3.87387722 0.04195535 7.55665644 0.48860941 11.375 1.125 C11.045 1.785 10.715 2.445 10.375 3.125 C11.365 3.455 12.355 3.785 13.375 4.125 C13.375 4.785 13.375 5.445 13.375 6.125 C12.47007812 6.19847656 12.47007812 6.19847656 11.546875 6.2734375 C10.74765625 6.34820312 9.9484375 6.42296875 9.125 6.5 C8.33609375 6.56960937 7.5471875 6.63921875 6.734375 6.7109375 C4.289123 7.14007113 2.52663097 7.91100638 0.375 9.125 C0.106875 8.5475 -0.16125 7.97 -0.4375 7.375 C-1.64219859 5.0924132 -3.03298115 3.1512058 -4.625 1.125 C-3.625 0.125 -3.625 0.125 0 0 Z M0.375 3.125 C0.375 3.455 0.375 3.785 0.375 4.125 C3.015 4.125 5.655 4.125 8.375 4.125 C8.375 3.795 8.375 3.465 8.375 3.125 C5.735 3.125 3.095 3.125 0.375 3.125 Z " fill="#2F1D0E" transform="translate(200.625,153.875)"/>
<path d="M0 0 C0.66 0.33 1.32 0.66 2 1 C1.34 2.32 0.68 3.64 0 5 C0.66 5 1.32 5 2 5 C3.33783393 5.31478446 4.67203709 5.64587656 6 6 C4.08864614 9.53600465 2.37357234 11.78972846 -1 14 C-1.99 13.01 -2.98 12.02 -4 11 C-3.01 10.67 -2.02 10.34 -1 10 C-1.66 9.01 -2.32 8.02 -3 7 C-3.99 7.495 -3.99 7.495 -5 8 C-5.66 7.34 -6.32 6.68 -7 6 C-6.401875 5.7525 -5.80375 5.505 -5.1875 5.25 C-2.71352479 3.83629988 -1.56629745 2.34944617 0 0 Z " fill="#2B150A" transform="translate(142,183)"/>
<path d="M0 0 C0.33 0 0.66 0 1 0 C1.33 12.21 1.66 24.42 2 37 C2.66 37 3.32 37 4 37 C4 37.66 4 38.32 4 39 C4.99 39.33 5.98 39.66 7 40 C0.125 39.125 0.125 39.125 -1 38 C-1.01697335 35.18642888 -0.9708943 32.40049073 -0.87890625 29.58984375 C-0.85529526 28.74780899 -0.83168427 27.90577423 -0.80735779 27.03822327 C-0.73053055 24.33781869 -0.64658888 21.63768729 -0.5625 18.9375 C-0.50929836 17.11134168 -0.45655786 15.28516986 -0.40429688 13.45898438 C-0.27488979 8.97248191 -0.13910001 4.48621199 0 0 Z " fill="#1E0100" transform="translate(394,155)"/>
<path d="M0 0 C-0.99 0.495 -0.99 0.495 -2 1 C-2 1.99 -2 2.98 -2 4 C-2.86625 4.185625 -2.86625 4.185625 -3.75 4.375 C-6.02335767 5.00648824 -7.9253529 5.88858191 -10 7 C-10 7.66 -10 8.32 -10 9 C-11.65 9.33 -13.3 9.66 -15 10 C-14.45132426 6.62956331 -13.74386236 4.57645694 -11.00390625 2.453125 C-4.17937697 -1.53625501 -4.17937697 -1.53625501 0 0 Z " fill="#311C10" transform="translate(163,178)"/>
<path d="M0 0 C0.33 0.99 0.66 1.98 1 3 C1.66 3.33 2.32 3.66 3 4 C3.33 3.34 3.66 2.68 4 2 C4 2.99 4 3.98 4 5 C3.01 5 2.02 5 1 5 C1 5.66 1 6.32 1 7 C0.46375 7.103125 -0.0725 7.20625 -0.625 7.3125 C-3.62502044 8.18092697 -6.2379535 9.55620296 -9 11 C-9.33 10.01 -9.66 9.02 -10 8 C-8.02 7.01 -6.04 6.02 -4 5 C-4.66 4.01 -5.32 3.02 -6 2 C-2.25 0 -2.25 0 0 0 Z " fill="#2C1A08" transform="translate(172,167)"/>
<path d="M0 0 C0.66 1.32 1.32 2.64 2 4 C2 3.34 2 2.68 2 2 C3.32 2.66 4.64 3.32 6 4 C6 4.66 6 5.32 6 6 C6.66 6.66 7.32 7.32 8 8 C8 8.99 8 9.98 8 11 C5.33333333 10.33333333 2.66666667 9.66666667 0 9 C-0.87890625 2.84765625 -0.87890625 2.84765625 -1 1 C-0.67 0.67 -0.34 0.34 0 0 Z " fill="#170A04" transform="translate(487,131)"/>
<path d="M0 0 C0.33 0 0.66 0 1 0 C1 15.18 1 30.36 1 46 C0.67 46 0.34 46 0 46 C0 30.82 0 15.64 0 0 Z " fill="#000000" transform="translate(277,147)"/>
<path d="M0 0 C0.66 0 1.32 0 2 0 C1.86722656 0.94359375 1.73445313 1.8871875 1.59765625 2.859375 C0.49207726 10.89701497 -0.42703163 18.90305223 -1 27 C-1.33 27 -1.66 27 -2 27 C-2.05811773 23.25006521 -2.09363593 19.50024648 -2.125 15.75 C-2.14175781 14.68652344 -2.15851563 13.62304688 -2.17578125 12.52734375 C-2.18222656 11.50253906 -2.18867188 10.47773438 -2.1953125 9.421875 C-2.20578613 8.47924805 -2.21625977 7.53662109 -2.22705078 6.56542969 C-1.99119213 3.90048059 -1.35661659 2.28136908 0 0 Z " fill="#000000" transform="translate(328,161)"/>
<path d="M0 0 C1.65 0 3.3 0 5 0 C4.34 0.66 3.68 1.32 3 2 C2.72315916 3.98524339 2.72315916 3.98524339 2.8046875 6.24609375 C2.81113281 7.08333984 2.81757812 7.92058594 2.82421875 8.78320312 C2.84097656 9.65912109 2.85773437 10.53503906 2.875 11.4375 C2.88402344 12.30955078 2.89304687 13.18160156 2.90234375 14.08007812 C2.91980199 15.70244744 2.94135777 17.32478132 2.96826172 18.94702148 C2.99429817 20.63117964 3 22.3156406 3 24 C0.89592904 22.30363829 0.06759322 21.45018536 -0.34057617 18.73168945 C-0.32486572 17.86761475 -0.30915527 17.00354004 -0.29296875 16.11328125 C-0.28330078 15.17548828 -0.27363281 14.23769531 -0.26367188 13.27148438 C-0.23853516 12.29501953 -0.21339844 11.31855469 -0.1875 10.3125 C-0.17396484 9.32443359 -0.16042969 8.33636719 -0.14648438 7.31835938 C-0.11112203 4.87835769 -0.06177033 2.43945281 0 0 Z " fill="#130300" transform="translate(527,159)"/>
<path d="M0 0 C0 0.66 0 1.32 0 2 C-1.98 2.33 -3.96 2.66 -6 3 C-6.33 2.01 -6.66 1.02 -7 0 C-11.29 0 -15.58 0 -20 0 C-13.07381409 -3.46309295 -7.13898826 -2.03971093 0 0 Z " fill="#785437" transform="translate(594,129)"/>
<path d="M0 0 C1.56454159 4.02014661 0.46223974 7.69925681 -0.4375 11.75 C-0.58509766 12.44738281 -0.73269531 13.14476562 -0.88476562 13.86328125 C-1.24868033 15.5772021 -1.62329068 17.28884581 -2 19 C-0.35 19 1.3 19 3 19 C3 19.33 3 19.66 3 20 C1.02 20 -0.96 20 -3 20 C-5.07680621 13.76958138 -2.2607165 5.97475075 0 0 Z " fill="#865834" transform="translate(183,204)"/>
<path d="M0 0 C0.33 0 0.66 0 1 0 C0.58411954 6.19518473 -0.60251894 11.26689311 -3 17 C-3.66 17 -4.32 17 -5 17 C-5.33 17.99 -5.66 18.98 -6 20 C-5.50104522 12.84831485 -2.68436185 6.58708719 0 0 Z " fill="#8D5E3A" transform="translate(190,184)"/>
<path d="M0 0 C0.99 0.33 1.98 0.66 3 1 C2.67 2.32 2.34 3.64 2 5 C0.68 4.67 -0.64 4.34 -2 4 C-2 4.66 -2 5.32 -2 6 C-1.34 6 -0.68 6 0 6 C-0.66 7.98 -1.32 9.96 -2 12 C-3.32 10.35 -4.64 8.7 -6 7 C-2.25 1.125 -2.25 1.125 0 0 Z " fill="#160802" transform="translate(504,153)"/>
<path d="M0 0 C0.33 0.99 0.66 1.98 1 3 C0.01 4.485 0.01 4.485 -1 6 C-1.66 6 -2.32 6 -3 6 C-3.33 7.65 -3.66 9.3 -4 11 C-4.66 11 -5.32 11 -6 11 C-6.33 12.32 -6.66 13.64 -7 15 C-7.66 14.67 -8.32 14.34 -9 14 C-8.34 11.69 -7.68 9.38 -7 7 C-6.34 7 -5.68 7 -5 7 C-4.9175 6.401875 -4.835 5.80375 -4.75 5.1875 C-3.79544128 2.4033704 -2.42867729 1.56688858 0 0 Z " fill="#6A4C2C" transform="translate(559,136)"/>
<path d="M0 0 C1.21236328 0.02707031 1.21236328 0.02707031 2.44921875 0.0546875 C3.37154297 0.08949219 3.37154297 0.08949219 4.3125 0.125 C4.3125 0.455 4.3125 0.785 4.3125 1.125 C2.0025 1.455 -0.3075 1.785 -2.6875 2.125 C-2.3575 3.115 -2.0275 4.105 -1.6875 5.125 C-2.3475 5.785 -3.0075 6.445 -3.6875 7.125 C-5.0075 7.125 -6.3275 7.125 -7.6875 7.125 C-7.875 4.75 -7.875 4.75 -7.6875 2.125 C-4.48369983 -0.01086678 -3.66810033 -0.10632175 0 0 Z " fill="#150701" transform="translate(400.6875,146.875)"/>
<path d="M0 0 C3.87387722 0.04195535 7.55665644 0.48860941 11.375 1.125 C8.28611478 3.18425681 7.66564073 3.3640374 4.1875 3.25 C2.3003125 3.188125 2.3003125 3.188125 0.375 3.125 C0.045 3.785 -0.285 4.445 -0.625 5.125 C-1.285 5.125 -1.945 5.125 -2.625 5.125 C-3.285 3.805 -3.945 2.485 -4.625 1.125 C-3.625 0.125 -3.625 0.125 0 0 Z " fill="#1E1007" transform="translate(200.625,153.875)"/>
<path d="M0 0 C0.66 0.66 1.32 1.32 2 2 C1.67028521 5.29714793 1.3773161 6.6226839 -1 9 C-3.5 7.625 -3.5 7.625 -6 6 C-6 5.34 -6 4.68 -6 4 C-4.03852126 2.61061923 -2.03833424 1.2739589 0 0 Z " fill="#140904" transform="translate(503,131)"/>
<path d="M0 0 C1.08099086 3.24297257 1.08152096 3.90265986 0 7 C-0.92628935 8.75805937 -1.90994945 10.48664004 -2.9375 12.1875 C-3.46214844 13.06792969 -3.98679687 13.94835937 -4.52734375 14.85546875 C-6 17 -6 17 -8 18 C-7.51748328 15.39440972 -6.83565409 13.73047271 -5.4375 11.4375 C-3.74600749 9.04095169 -3.74600749 9.04095169 -4 6 C-3.34 5.67 -2.68 5.34 -2 5 C-1.27840576 3.35636866 -0.60648579 1.68949614 0 0 Z " fill="#734E32" transform="translate(614,168)"/>
<path d="M0 0 C0.66 0.33 1.32 0.66 2 1 C1.6875 2.875 1.6875 2.875 1 5 C-2.08888522 7.05925681 -2.70935927 7.2390374 -6.1875 7.125 C-8.0746875 7.063125 -8.0746875 7.063125 -10 7 C-10 6.34 -10 5.68 -10 5 C-8.906875 4.731875 -7.81375 4.46375 -6.6875 4.1875 C-3.38307337 3.12336261 -2.05039578 2.65345336 0 0 Z " fill="#110603" transform="translate(480,154)"/>
<path d="M0 0 C4.05606165 0.46800711 7.46588679 0.87953208 11 3 C11 3.66 11 4.32 11 5 C11.99 5.33 12.98 5.66 14 6 C13.34 6.66 12.68 7.32 12 8 C11.401875 7.34 10.80375 6.68 10.1875 6 C8.12498166 3.6626154 8.12498166 3.6626154 5 4 C4.34 3.67 3.68 3.34 3 3 C3 2.34 3 1.68 3 1 C2.01 0.67 1.02 0.34 0 0 Z M4 5 C4.66 5.33 5.32 5.66 6 6 C4.68 6.33 3.36 6.66 2 7 C2.66 6.34 3.32 5.68 4 5 Z " fill="#140C04" transform="translate(470,147)"/>
<path d="M0 0 C5.61 0 11.22 0 17 0 C17.33 0.66 17.66 1.32 18 2 C14.91190305 3.76462683 13.76687864 4 10 4 C10 3.01 10 2.02 10 1 C9.01 1.33 8.02 1.66 7 2 C4.6593935 1.72230092 2.32375692 1.39460023 0 1 C0 0.67 0 0.34 0 0 Z " fill="#3E2B1C" transform="translate(113,139)"/>
<path d="M0 0 C0.66 0.33 1.32 0.66 2 1 C2 1.99 2 2.98 2 4 C1.01 4.495 1.01 4.495 0 5 C0.33 6.65 0.66 8.3 1 10 C-0.32 10.33 -1.64 10.66 -3 11 C-4.11651815 7.65044556 -3.99822121 6.32740404 -3 3 C-1.4375 1.1875 -1.4375 1.1875 0 0 Z " fill="#34200C" transform="translate(118,194)"/>
<path d="M0 0 C0 3 0 3 -2 6 C-2.66 6 -3.32 6 -4 6 C-4.103125 6.53625 -4.20625 7.0725 -4.3125 7.625 C-5.18092697 10.62502044 -6.55620296 13.2379535 -8 16 C-8.66 16 -9.32 16 -10 16 C-8.53291432 10.27836585 -5.58811438 5.63139763 -2 1 C-1.34 0.67 -0.68 0.34 0 0 Z " fill="#8C5E3A" transform="translate(203,164)"/>
<path d="M0 0 C0.99 0.33 1.98 0.66 3 1 C2.67 1.9075 2.34 2.815 2 3.75 C0.80394277 7.07045807 0.80394277 7.07045807 1 11 C-0.65 11.33 -2.3 11.66 -4 12 C-3.505 11.1028125 -3.505 11.1028125 -3 10.1875 C-1.79212012 7.94613529 -1.79212012 7.94613529 -2 5 C-1.34 5 -0.68 5 0 5 C-0.2784375 4.0409375 -0.2784375 4.0409375 -0.5625 3.0625 C-0.706875 2.381875 -0.85125 1.70125 -1 1 C-0.67 0.67 -0.34 0.34 0 0 Z " fill="#2B180E" transform="translate(157,147)"/>
<path d="M0 0 C-0.28875 0.556875 -0.5775 1.11375 -0.875 1.6875 C-2.0413253 4.08494645 -3.0339881 6.51596939 -4 9 C-5.5 7.75 -5.5 7.75 -7 6 C-7 4.68 -7 3.36 -7 2 C-4 0 -4 0 0 0 Z " fill="#674223" transform="translate(627,148)"/>
<path d="M0 0 C0.66 0.33 1.32 0.66 2 1 C1.67 2.32 1.34 3.64 1 5 C0.34 5 -0.32 5 -1 5 C-1.33 9.95 -1.66 14.9 -2 20 C-2.33 20 -2.66 20 -3 20 C-3.37570546 7.28863209 -3.37570546 7.28863209 -1 1 C-0.67 0.67 -0.34 0.34 0 0 Z " fill="#744F34" transform="translate(564,148)"/>
<path d="M0 0 C0.66 1.32 1.32 2.64 2 4 C0.35 4.66 -1.3 5.32 -3 6 C-3.99 5.01 -4.98 4.02 -6 3 C-5.67 2.34 -5.34 1.68 -5 1 C-2.4375 0.375 -2.4375 0.375 0 0 Z " fill="#3D2B19" transform="translate(139,189)"/>
<path d="M0 0 C0.66 0.33 1.32 0.66 2 1 C2.625 3.0625 2.625 3.0625 3 5 C4.98 5 6.96 5 9 5 C8.67 5.66 8.34 6.32 8 7 C5.67843403 7.40729228 3.3431213 7.74438677 1 8 C1 7.34 1 6.68 1 6 C0.34 6 -0.32 6 -1 6 C-0.67 4.02 -0.34 2.04 0 0 Z " fill="#0C0602" transform="translate(459,159)"/>
<path d="M0 0 C0.598125 0.309375 1.19625 0.61875 1.8125 0.9375 C4.08956772 2.10209704 4.08956772 2.10209704 7 3 C2.07262981 4.97094808 -1.78020872 5.1799928 -7 5 C-5.75 3.5 -5.75 3.5 -4 2 C-2.68 2 -1.36 2 0 2 C0 1.34 0 0.68 0 0 Z " fill="#9D6F48" transform="translate(196,219)"/>
<path d="M0 0 C0.66 0 1.32 0 2 0 C3.125 3.75 3.125 3.75 2 6 C1.34 6 0.68 6 0 6 C0 6.99 0 7.98 0 9 C-1.32 8.34 -2.64 7.68 -4 7 C-3.34 6.01 -2.68 5.02 -2 4 C-1.34 4 -0.68 4 0 4 C0 2.68 0 1.36 0 0 Z " fill="#2A1306" transform="translate(151,208)"/>
<path d="M0 0 C3 1.4375 3 1.4375 6 4 C6.53698855 7.05872891 6.35474551 9.92553889 6 13 C3.34508415 9.86237217 2.16838432 6.92243307 1 3 C0.67 2.01 0.34 1.02 0 0 Z " fill="#6B482D" transform="translate(702,170)"/>
<path d="M0 0 C0.66 0.99 1.32 1.98 2 3 C2.66 3.66 3.32 4.32 4 5 C3.625 7.625 3.625 7.625 3 10 C2.01 9.67 1.02 9.34 0 9 C0.33 7.68 0.66 6.36 1 5 C-0.32 4.34 -1.64 3.68 -3 3 C-2 1 -2 1 0 0 Z " fill="#150802" transform="translate(372,171)"/>
<path d="M0 0 C0.66 0 1.32 0 2 0 C4.21538462 7.26153846 4.21538462 7.26153846 3.125 11 C2.75375 11.66 2.3825 12.32 2 13 C1.67 13 1.34 13 1 13 C0.67 8.71 0.34 4.42 0 0 Z " fill="#0E0C02" transform="translate(438,156)"/>
<path d="M0 0 C1.32 0.66 2.64 1.32 4 2 C3.375 3.875 3.375 3.875 2 6 C-1.125 7.25 -1.125 7.25 -4 8 C-4 7.34 -4 6.68 -4 6 C-3.34 6 -2.68 6 -2 6 C-1.34 4.02 -0.68 2.04 0 0 Z " fill="#1C1006" transform="translate(148,175)"/>
<path d="M0 0 C0.33 1.65 0.66 3.3 1 5 C-1.07553648 5.5534764 -2.84365964 6 -5 6 C-4.625 3.5625 -4.625 3.5625 -4 1 C-2 0 -2 0 0 0 Z " fill="#28190E" transform="translate(189,161)"/>
<path d="M0 0 C0.33 0 0.66 0 1 0 C1 7.59 1 15.18 1 23 C0.67 23 0.34 23 0 23 C0 15.41 0 7.82 0 0 Z " fill="#000000" transform="translate(409,170)"/>
<path d="M0 0 C0.33 0 0.66 0 1 0 C1 7.59 1 15.18 1 23 C0.67 23 0.34 23 0 23 C0 15.41 0 7.82 0 0 Z " fill="#000000" transform="translate(503,162)"/>
<path d="M0 0 C0.556875 0.226875 1.11375 0.45375 1.6875 0.6875 C-4.0625 4.6875 -4.0625 4.6875 -6.3125 4.6875 C-6.6425 5.6775 -6.9725 6.6675 -7.3125 7.6875 C-7.6425 6.6975 -7.9725 5.7075 -8.3125 4.6875 C-6.63215242 1.32680485 -3.76400767 -0.50864968 0 0 Z " fill="#412108" transform="translate(207.3125,160.3125)"/>
<path d="M0 0 C0.33 0.66 0.66 1.32 1 2 C0.690625 2.53625 0.38125 3.0725 0.0625 3.625 C-1.50799373 7.13551539 -1.12756928 10.17292161 -1 14 C-1.33 14 -1.66 14 -2 14 C-2.24915939 12.23186888 -2.47366632 10.46025018 -2.6875 8.6875 C-2.81511719 7.70136719 -2.94273438 6.71523437 -3.07421875 5.69921875 C-3 3 -3 3 -1.51953125 1.14453125 C-1.01808594 0.76683594 -0.51664062 0.38914062 0 0 Z " fill="#2C140A" transform="translate(100,121)"/>
<path d="M0 0 C0.33 1.32 0.66 2.64 1 4 C1.66 4 2.32 4 3 4 C3 4.66 3 5.32 3 6 C3.66 6.33 4.32 6.66 5 7 C3.35 7.33 1.7 7.66 0 8 C-1.125 2.25 -1.125 2.25 0 0 Z " fill="#2F1E0A" transform="translate(122,215)"/>
<path d="M0 0 C0 3.5595477 -0.61579539 4.44549506 -3 7 C-5.1875 7.75 -5.1875 7.75 -7 8 C-6.67 6.35 -6.34 4.7 -6 3 C-5.38125 2.87625 -4.7625 2.7525 -4.125 2.625 C-1.80879168 2.12802644 -1.80879168 2.12802644 0 0 Z " fill="#301D0D" transform="translate(156,183)"/>
<path d="M0 0 C0.66 0 1.32 0 2 0 C1.34 4.95 0.68 9.9 0 15 C-0.33 15 -0.66 15 -1 15 C-1.22304441 13.25181409 -1.4278645 11.50129677 -1.625 9.75 C-1.74101562 8.77546875 -1.85703125 7.8009375 -1.9765625 6.796875 C-2.00112537 3.86570607 -1.5312717 2.45471036 0 0 Z " fill="#170000" transform="translate(328,161)"/>
<path d="M0 0 C0.66 0.33 1.32 0.66 2 1 C2.33 1.99 2.66 2.98 3 4 C2.34 4.66 1.68 5.32 1 6 C-1.625 5.625 -1.625 5.625 -4 5 C-4 4.34 -4 3.68 -4 3 C-2.68 2.67 -1.36 2.34 0 2 C0 1.34 0 0.68 0 0 Z " fill="#251A09" transform="translate(132,191)"/>
<path d="M0 0 C0 0.66 0 1.32 0 2 C-0.99 2 -1.98 2 -3 2 C-3 3.65 -3 5.3 -3 7 C-3.66 7 -4.32 7 -5 7 C-5.66 5.02 -6.32 3.04 -7 1 C-4.50935112 0.31292445 -2.62113708 0 0 0 Z " fill="#170701" transform="translate(364,175)"/>
<path d="M0 0 C1.65 0.99 3.3 1.98 5 3 C4.67 4.32 4.34 5.64 4 7 C4.66 7.33 5.32 7.66 6 8 C5.01 8 4.02 8 3 8 C0 2.25 0 2.25 0 0 Z " fill="#62472B" transform="translate(661,154)"/>
<path d="M0 0 C1.52519276 0.08937803 3.04681929 0.24537146 4.5625 0.4375 C5.80193359 0.59025391 5.80193359 0.59025391 7.06640625 0.74609375 C7.70449219 0.82988281 8.34257812 0.91367188 9 1 C5.375 4 5.375 4 2 4 C2 3.34 2 2.68 2 2 C1.01 1.67 0.02 1.34 -1 1 C-0.67 0.67 -0.34 0.34 0 0 Z " fill="#140C05" transform="translate(420,146)"/>
<path d="M0 0 C1.32 0.33 2.64 0.66 4 1 C3.2884375 1.61875 3.2884375 1.61875 2.5625 2.25 C0.83733482 4.182185 0.43415125 5.48192275 0 8 C-1.125 6.25 -1.125 6.25 -2 4 C-1.125 1.75 -1.125 1.75 0 0 Z " fill="#150A05" transform="translate(516,133)"/>
<path d="M0 0 C-1.98 0.99 -1.98 0.99 -4 2 C-4 2.66 -4 3.32 -4 4 C-5.65 4.33 -7.3 4.66 -9 5 C-8 2 -8 2 -5.625 0.25 C-3 -1 -3 -1 0 0 Z " fill="#3E0200" transform="translate(157,183)"/>
<path d="M0 0 C3.375 0.3125 3.375 0.3125 7 1 C7.66 1.99 8.32 2.98 9 4 C8.01 4.495 8.01 4.495 7 5 C1.27272727 2.54545455 1.27272727 2.54545455 0 0 Z " fill="#715339" transform="translate(674,171)"/>
<path d="M0 0 C0.66 0 1.32 0 2 0 C2.125 3.375 2.125 3.375 2 7 C1.34 7.66 0.68 8.32 0 9 C-0.66 8.01 -1.32 7.02 -2 6 C-1.34 5.01 -0.68 4.02 0 3 C0 2.01 0 1.02 0 0 Z " fill="#20120D" transform="translate(152,161)"/>
<path d="M0 0 C-0.33 0.66 -0.66 1.32 -1 2 C-4.3 2 -7.6 2 -11 2 C-11 1.67 -11 1.34 -11 1 C-3.57142857 -1.42857143 -3.57142857 -1.42857143 0 0 Z " fill="#724F31" transform="translate(220,159)"/>
<path d="M0 0 C0 0.66 0 1.32 0 2 C-2.99531539 2.99843846 -4.17255732 3.00732761 -7.1875 2.5625 C-8.445625 2.376875 -9.70375 2.19125 -11 2 C-7.36576791 -0.32590854 -4.22911669 -0.16265833 0 0 Z " fill="#574231" transform="translate(650,147)"/>
<path d="M0 0 C0.99 0.66 1.98 1.32 3 2 C3 2.99 3 3.98 3 5 C0.69 4.67 -1.62 4.34 -4 4 C-3.67 3.01 -3.34 2.02 -3 1 C-2.01 0.67 -1.02 0.34 0 0 Z " fill="#180B04" transform="translate(516,144)"/>
<path d="M0 0 C1.32 0.33 2.64 0.66 4 1 C3.01 1.495 3.01 1.495 2 2 C2 2.99 2 3.98 2 5 C0.35 5 -1.3 5 -3 5 C-2.01 3.35 -1.02 1.7 0 0 Z " fill="#271807" transform="translate(159,177)"/>
<path d="M0 0 C0.33 0.66 0.66 1.32 1 2 C0.01 3.485 0.01 3.485 -1 5 C-2.65 4.67 -4.3 4.34 -6 4 C-4.60804085 1.2160817 -2.84424221 1.02101003 0 0 Z " fill="#140802" transform="translate(454,169)"/>
<path d="M0 0 C1.67542976 0.28604898 3.34385343 0.61781233 5 1 C5 1.66 5 2.32 5 3 C5.66 3.33 6.32 3.66 7 4 C1.25 3.25 1.25 3.25 -1 1 C-0.67 0.67 -0.34 0.34 0 0 Z " fill="#0E0603" transform="translate(475,168)"/>
<path d="M0 0 C2.125 0.9375 2.125 0.9375 4 2 C0.49223216 3.60355101 -2.14354879 4.22036864 -6 4 C-4.03617993 2.49440461 -2.21736634 1.10868317 0 0 Z " fill="#150C07" transform="translate(535,192)"/>
<path d="M0 0 C1.98 0 3.96 0 6 0 C6.33 0.99 6.66 1.98 7 3 C4.36 2.67 1.72 2.34 -1 2 C-0.67 1.34 -0.34 0.68 0 0 Z " fill="#050000" transform="translate(189,157)"/>
<path d="M0 0 C0.99 0 1.98 0 3 0 C3.33 2.31 3.66 4.62 4 7 C2.35 5.35 0.7 3.7 -1 2 C-0.67 1.34 -0.34 0.68 0 0 Z " fill="#0F0200" transform="translate(348,154)"/>
<path d="M0 0 C4 1 4 1 4 1 Z " fill="#000000" transform="translate(286,195)"/>
<path d="" fill="#000000" transform="translate(0,0)"/>
<path d="M0 0 C3 1 3 1 3 1 Z " fill="#000000" transform="translate(360,163)"/>
<path d="M0 0 C2 1 2 1 2 1 Z " fill="#000000" transform="translate(492,195)"/>
<path d="" fill="#000000" transform="translate(0,0)"/>
<path d="" fill="#000000" transform="translate(0,0)"/>
<path d="M0 0 C2 1 2 1 2 1 Z " fill="#000000" transform="translate(498,142)"/>
<path d="" fill="#FFFFFF" transform="translate(0,0)"/>
<path d="" fill="#FFFFFF" transform="translate(0,0)"/>
<path d="" fill="#FFFFFF" transform="translate(0,0)"/>
<path d="" fill="#FFFFFF" transform="translate(0,0)"/>
<path d="" fill="#FFFFFF" transform="translate(0,0)"/>
<path d="" fill="#FFFFFF" transform="translate(0,0)"/>
<path d="" fill="#FFFFFF" transform="translate(0,0)"/>
<path d="" fill="#FFFFFF" transform="translate(0,0)"/>
<path d="" fill="#FFFFFF" transform="translate(0,0)"/>
<path d="" fill="#FFFFFF" transform="translate(0,0)"/>
<path d="" fill="#FFFFFF" transform="translate(0,0)"/>
<path d="" fill="#FFFFFF" transform="translate(0,0)"/>
<path d="" fill="#FFFFFF" transform="translate(0,0)"/>
<path d="" fill="#FFFFFF" transform="translate(0,0)"/>
<path d="" fill="#FFFFFF" transform="translate(0,0)"/>
<path d="" fill="#FFFFFF" transform="translate(0,0)"/>
<path d="" fill="#FFFFFF" transform="translate(0,0)"/>
<path d="" fill="#FFFFFF" transform="translate(0,0)"/>
<path d="" fill="#FFFFFF" transform="translate(0,0)"/>
<path d="" fill="#FFFFFF" transform="translate(0,0)"/>
<path d="" fill="#FFFFFF" transform="translate(0,0)"/>
<path d="" fill="#FFFFFF" transform="translate(0,0)"/>
<path d="" fill="#FFFFFF" transform="translate(0,0)"/>
<path d="" fill="#FFFFFF" transform="translate(0,0)"/>
<path d="" fill="#FFFFFF" transform="translate(0,0)"/>
<path d="" fill="#FFFFFF" transform="translate(0,0)"/>
<path d="" fill="#FFFFFF" transform="translate(0,0)"/>
<path d="" fill="#FFFFFF" transform="translate(0,0)"/>
<path d="" fill="#FFFFFF" transform="translate(0,0)"/>
<path d="" fill="#FFFFFF" transform="translate(0,0)"/>
<path d="" fill="#FFFFFF" transform="translate(0,0)"/>
<path d="" fill="#FFFFFF" transform="translate(0,0)"/>
<path d="" fill="#FFFFFF" transform="translate(0,0)"/>
<path d="" fill="#000000" transform="translate(0,0)"/>
<path d="" fill="#000000" transform="translate(0,0)"/>
<path d="" fill="#000000" transform="translate(0,0)"/>
<path d="" fill="#FFFFFF" transform="translate(0,0)"/>
<path d="" fill="#000000" transform="translate(0,0)"/>
<path d="" fill="#000000" transform="translate(0,0)"/>
<path d="" fill="#000000" transform="translate(0,0)"/>
<path d="" fill="#000000" transform="translate(0,0)"/>
<path d="" fill="#000000" transform="translate(0,0)"/>
<path d="" fill="#FFFFFF" transform="translate(0,0)"/>
<path d="" fill="#FFFFFF" transform="translate(0,0)"/>
<path d="" fill="#000000" transform="translate(0,0)"/>
<path d="" fill="#000000" transform="translate(0,0)"/>
<path d="" fill="#FFFFFF" transform="translate(0,0)"/>
<path d="" fill="#FFFFFF" transform="translate(0,0)"/>
<path d="" fill="#000000" transform="translate(0,0)"/>
<path d="" fill="#7F7F7F" transform="translate(0,0)"/>
<path d="" fill="#7F7F7F" transform="translate(0,0)"/>
<path d="" fill="#FFFFFF" transform="translate(0,0)"/>
<path d="" fill="#000000" transform="translate(0,0)"/>
<path d="" fill="#FFFFFF" transform="translate(0,0)"/>
<path d="" fill="#000000" transform="translate(0,0)"/>
<path d="" fill="#FFFFFF" transform="translate(0,0)"/>
<path d="" fill="#FFFFFF" transform="translate(0,0)"/>
<path d="" fill="#FFFFFF" transform="translate(0,0)"/>
<path d="" fill="#FFFFFF" transform="translate(0,0)"/>
<path d="" fill="#FFFFFF" transform="translate(0,0)"/>
<path d="" fill="#FFFFFF" transform="translate(0,0)"/>
<path d="" fill="#00FFFF" transform="translate(0,0)"/>
<path d="" fill="#FFFFFF" transform="translate(0,0)"/>
<path d="" fill="#FFFFFF" transform="translate(0,0)"/>
<path d="" fill="#FFFFFF" transform="translate(0,0)"/>
<path d="" fill="#FFFFFF" transform="translate(0,0)"/>
<path d="" fill="#FFFFFF" transform="translate(0,0)"/>
<path d="" fill="#FFFFFF" transform="translate(0,0)"/>
<path d="" fill="#FFFFFF" transform="translate(0,0)"/>
<path d="" fill="#FFFFFF" transform="translate(0,0)"/>
<path d="" fill="#FFFFFF" transform="translate(0,0)"/>
<path d="" fill="#FFFFFF" transform="translate(0,0)"/>
<path d="" fill="#FFFFFF" transform="translate(0,0)"/>
<path d="" fill="#FFFFFF" transform="translate(0,0)"/>
<path d="" fill="#FFFFFF" transform="translate(0,0)"/>
<path d="" fill="#FFFFFF" transform="translate(0,0)"/>
<path d="" fill="#FFFFFF" transform="translate(0,0)"/>
<path d="" fill="#FFFFFF" transform="translate(0,0)"/>
<path d="" fill="#FFFFFF" transform="translate(0,0)"/>
<path d="" fill="#FFFFFF" transform="translate(0,0)"/>
<path d="" fill="#FFFFFF" transform="translate(0,0)"/>
<path d="" fill="#FFFFFF" transform="translate(0,0)"/>
<path d="" fill="#FFFFFF" transform="translate(0,0)"/>
<path d="" fill="#FFFFFF" transform="translate(0,0)"/>
<path d="" fill="#FFFFFF" transform="translate(0,0)"/>
<path d="" fill="#FFFFFF" transform="translate(0,0)"/>
<path d="" fill="#FFFFFF" transform="translate(0,0)"/>
<path d="" fill="#FFFFFF" transform="translate(0,0)"/>
<path d="" fill="#FFFFFF" transform="translate(0,0)"/>
<path d="" fill="#FFFFFF" transform="translate(0,0)"/>
<path d="" fill="#FFFFFF" transform="translate(0,0)"/>
<path d="" fill="#FFFFFF" transform="translate(0,0)"/>
<path d="" fill="#FFFFFF" transform="translate(0,0)"/>
<path d="" fill="#FFFFFF" transform="translate(0,0)"/>
<path d="" fill="#FFFFFF" transform="translate(0,0)"/>
<path d="" fill="#FFFFFF" transform="translate(0,0)"/>
<path d="" fill="#FFFFFF" transform="translate(0,0)"/>
<path d="" fill="#FFFFFF" transform="translate(0,0)"/>
<path d="" fill="#FFFFFF" transform="translate(0,0)"/>
</svg>
